G04 EAGLE Gerber RS-274X export*
G75*
%MOMM*%
%FSLAX34Y34*%
%LPD*%
%INSilkscreen Top*%
%IPPOS*%
%AMOC8*
5,1,8,0,0,1.08239X$1,22.5*%
G01*
%ADD10C,0.152400*%
%ADD11C,0.127000*%
%ADD12C,0.101600*%


D10*
X253520Y586749D02*
X253520Y588188D01*
X258318Y588188D01*
X258318Y585309D01*
X258316Y585223D01*
X258310Y585137D01*
X258301Y585051D01*
X258287Y584966D01*
X258270Y584882D01*
X258249Y584798D01*
X258224Y584716D01*
X258196Y584635D01*
X258164Y584555D01*
X258128Y584476D01*
X258089Y584400D01*
X258046Y584325D01*
X258001Y584252D01*
X257952Y584181D01*
X257899Y584113D01*
X257844Y584046D01*
X257786Y583983D01*
X257725Y583922D01*
X257662Y583864D01*
X257595Y583809D01*
X257527Y583757D01*
X257456Y583707D01*
X257383Y583662D01*
X257308Y583619D01*
X257232Y583580D01*
X257153Y583544D01*
X257073Y583512D01*
X256992Y583484D01*
X256910Y583459D01*
X256826Y583438D01*
X256742Y583421D01*
X256657Y583407D01*
X256571Y583398D01*
X256485Y583392D01*
X256399Y583390D01*
X251601Y583390D01*
X251515Y583392D01*
X251429Y583398D01*
X251343Y583407D01*
X251258Y583421D01*
X251174Y583438D01*
X251090Y583459D01*
X251008Y583484D01*
X250927Y583512D01*
X250847Y583544D01*
X250768Y583580D01*
X250692Y583619D01*
X250617Y583662D01*
X250544Y583707D01*
X250473Y583756D01*
X250405Y583809D01*
X250338Y583864D01*
X250275Y583922D01*
X250214Y583983D01*
X250156Y584046D01*
X250101Y584113D01*
X250049Y584181D01*
X249999Y584252D01*
X249954Y584325D01*
X249911Y584400D01*
X249872Y584476D01*
X249836Y584555D01*
X249804Y584635D01*
X249776Y584716D01*
X249751Y584798D01*
X249730Y584882D01*
X249713Y584966D01*
X249699Y585051D01*
X249690Y585137D01*
X249684Y585223D01*
X249682Y585309D01*
X249682Y588188D01*
X249682Y593144D02*
X258318Y593144D01*
X258318Y597941D02*
X249682Y593144D01*
X249682Y597941D02*
X258318Y597941D01*
X258318Y602897D02*
X249682Y602897D01*
X249682Y605296D01*
X249684Y605393D01*
X249690Y605489D01*
X249699Y605585D01*
X249713Y605681D01*
X249730Y605776D01*
X249752Y605870D01*
X249777Y605963D01*
X249805Y606056D01*
X249838Y606147D01*
X249874Y606236D01*
X249914Y606324D01*
X249957Y606411D01*
X250003Y606496D01*
X250053Y606578D01*
X250107Y606659D01*
X250163Y606737D01*
X250223Y606813D01*
X250285Y606887D01*
X250351Y606958D01*
X250419Y607026D01*
X250490Y607092D01*
X250564Y607154D01*
X250640Y607214D01*
X250718Y607270D01*
X250799Y607324D01*
X250882Y607374D01*
X250966Y607420D01*
X251053Y607463D01*
X251141Y607503D01*
X251230Y607539D01*
X251321Y607572D01*
X251414Y607600D01*
X251507Y607625D01*
X251601Y607647D01*
X251696Y607664D01*
X251792Y607678D01*
X251888Y607687D01*
X251984Y607693D01*
X252081Y607695D01*
X255919Y607695D01*
X256016Y607693D01*
X256112Y607687D01*
X256208Y607678D01*
X256304Y607664D01*
X256399Y607647D01*
X256493Y607625D01*
X256586Y607600D01*
X256679Y607572D01*
X256770Y607539D01*
X256859Y607503D01*
X256947Y607463D01*
X257034Y607420D01*
X257119Y607374D01*
X257201Y607324D01*
X257282Y607270D01*
X257360Y607214D01*
X257436Y607154D01*
X257510Y607092D01*
X257581Y607026D01*
X257649Y606958D01*
X257715Y606887D01*
X257777Y606813D01*
X257837Y606737D01*
X257893Y606659D01*
X257947Y606578D01*
X257997Y606496D01*
X258043Y606411D01*
X258086Y606324D01*
X258126Y606236D01*
X258162Y606147D01*
X258195Y606056D01*
X258223Y605963D01*
X258248Y605870D01*
X258270Y605776D01*
X258287Y605681D01*
X258301Y605585D01*
X258310Y605489D01*
X258316Y605393D01*
X258318Y605296D01*
X258318Y602897D01*
X228120Y588188D02*
X228120Y586749D01*
X228120Y588188D02*
X232918Y588188D01*
X232918Y585309D01*
X232916Y585223D01*
X232910Y585137D01*
X232901Y585051D01*
X232887Y584966D01*
X232870Y584882D01*
X232849Y584798D01*
X232824Y584716D01*
X232796Y584635D01*
X232764Y584555D01*
X232728Y584476D01*
X232689Y584400D01*
X232646Y584325D01*
X232601Y584252D01*
X232552Y584181D01*
X232499Y584113D01*
X232444Y584046D01*
X232386Y583983D01*
X232325Y583922D01*
X232262Y583864D01*
X232195Y583809D01*
X232127Y583757D01*
X232056Y583707D01*
X231983Y583662D01*
X231908Y583619D01*
X231832Y583580D01*
X231753Y583544D01*
X231673Y583512D01*
X231592Y583484D01*
X231510Y583459D01*
X231426Y583438D01*
X231342Y583421D01*
X231257Y583407D01*
X231171Y583398D01*
X231085Y583392D01*
X230999Y583390D01*
X226201Y583390D01*
X226115Y583392D01*
X226029Y583398D01*
X225943Y583407D01*
X225858Y583421D01*
X225774Y583438D01*
X225690Y583459D01*
X225608Y583484D01*
X225527Y583512D01*
X225447Y583544D01*
X225368Y583580D01*
X225292Y583619D01*
X225217Y583662D01*
X225144Y583707D01*
X225073Y583756D01*
X225005Y583809D01*
X224938Y583864D01*
X224875Y583922D01*
X224814Y583983D01*
X224756Y584046D01*
X224701Y584113D01*
X224649Y584181D01*
X224599Y584252D01*
X224554Y584325D01*
X224511Y584400D01*
X224472Y584476D01*
X224436Y584555D01*
X224404Y584635D01*
X224376Y584716D01*
X224351Y584798D01*
X224330Y584882D01*
X224313Y584966D01*
X224299Y585051D01*
X224290Y585137D01*
X224284Y585223D01*
X224282Y585309D01*
X224282Y588188D01*
X224282Y593144D02*
X232918Y593144D01*
X232918Y597941D02*
X224282Y593144D01*
X224282Y597941D02*
X232918Y597941D01*
X232918Y602897D02*
X224282Y602897D01*
X224282Y605296D01*
X224284Y605393D01*
X224290Y605489D01*
X224299Y605585D01*
X224313Y605681D01*
X224330Y605776D01*
X224352Y605870D01*
X224377Y605963D01*
X224405Y606056D01*
X224438Y606147D01*
X224474Y606236D01*
X224514Y606324D01*
X224557Y606411D01*
X224603Y606496D01*
X224653Y606578D01*
X224707Y606659D01*
X224763Y606737D01*
X224823Y606813D01*
X224885Y606887D01*
X224951Y606958D01*
X225019Y607026D01*
X225090Y607092D01*
X225164Y607154D01*
X225240Y607214D01*
X225318Y607270D01*
X225399Y607324D01*
X225482Y607374D01*
X225566Y607420D01*
X225653Y607463D01*
X225741Y607503D01*
X225830Y607539D01*
X225921Y607572D01*
X226014Y607600D01*
X226107Y607625D01*
X226201Y607647D01*
X226296Y607664D01*
X226392Y607678D01*
X226488Y607687D01*
X226584Y607693D01*
X226681Y607695D01*
X230519Y607695D01*
X230616Y607693D01*
X230712Y607687D01*
X230808Y607678D01*
X230904Y607664D01*
X230999Y607647D01*
X231093Y607625D01*
X231186Y607600D01*
X231279Y607572D01*
X231370Y607539D01*
X231459Y607503D01*
X231547Y607463D01*
X231634Y607420D01*
X231719Y607374D01*
X231801Y607324D01*
X231882Y607270D01*
X231960Y607214D01*
X232036Y607154D01*
X232110Y607092D01*
X232181Y607026D01*
X232249Y606958D01*
X232315Y606887D01*
X232377Y606813D01*
X232437Y606737D01*
X232493Y606659D01*
X232547Y606578D01*
X232597Y606496D01*
X232643Y606411D01*
X232686Y606324D01*
X232726Y606236D01*
X232762Y606147D01*
X232795Y606056D01*
X232823Y605963D01*
X232848Y605870D01*
X232870Y605776D01*
X232887Y605681D01*
X232901Y605585D01*
X232910Y605489D01*
X232916Y605393D01*
X232918Y605296D01*
X232918Y602897D01*
X280360Y588797D02*
X280360Y583040D01*
X283238Y585919D02*
X277481Y585919D01*
X283718Y593274D02*
X283718Y596152D01*
X283716Y596238D01*
X283710Y596324D01*
X283701Y596410D01*
X283687Y596495D01*
X283670Y596579D01*
X283649Y596663D01*
X283624Y596745D01*
X283596Y596826D01*
X283564Y596906D01*
X283528Y596985D01*
X283489Y597061D01*
X283446Y597136D01*
X283401Y597209D01*
X283352Y597280D01*
X283299Y597348D01*
X283244Y597415D01*
X283186Y597478D01*
X283125Y597539D01*
X283062Y597597D01*
X282995Y597652D01*
X282927Y597705D01*
X282856Y597754D01*
X282783Y597799D01*
X282708Y597842D01*
X282632Y597881D01*
X282553Y597917D01*
X282473Y597949D01*
X282392Y597977D01*
X282310Y598002D01*
X282226Y598023D01*
X282142Y598040D01*
X282057Y598054D01*
X281971Y598063D01*
X281885Y598069D01*
X281799Y598071D01*
X280839Y598071D01*
X280753Y598069D01*
X280667Y598063D01*
X280581Y598054D01*
X280496Y598040D01*
X280412Y598023D01*
X280328Y598002D01*
X280246Y597977D01*
X280165Y597949D01*
X280085Y597917D01*
X280006Y597881D01*
X279930Y597842D01*
X279855Y597799D01*
X279782Y597754D01*
X279711Y597705D01*
X279643Y597652D01*
X279576Y597597D01*
X279513Y597539D01*
X279452Y597478D01*
X279394Y597415D01*
X279339Y597348D01*
X279287Y597280D01*
X279237Y597209D01*
X279192Y597136D01*
X279149Y597061D01*
X279110Y596985D01*
X279074Y596906D01*
X279042Y596826D01*
X279014Y596745D01*
X278989Y596663D01*
X278968Y596579D01*
X278951Y596495D01*
X278937Y596410D01*
X278928Y596324D01*
X278922Y596238D01*
X278920Y596152D01*
X278920Y593274D01*
X275082Y593274D01*
X275082Y598071D01*
X275082Y601938D02*
X283718Y604816D01*
X275082Y607695D01*
X325882Y585913D02*
X334518Y585913D01*
X325882Y585913D02*
X325882Y588312D01*
X325884Y588409D01*
X325890Y588505D01*
X325899Y588601D01*
X325913Y588697D01*
X325930Y588792D01*
X325952Y588886D01*
X325977Y588979D01*
X326005Y589072D01*
X326038Y589163D01*
X326074Y589252D01*
X326114Y589340D01*
X326157Y589427D01*
X326203Y589512D01*
X326253Y589594D01*
X326307Y589675D01*
X326363Y589753D01*
X326423Y589829D01*
X326485Y589903D01*
X326551Y589974D01*
X326619Y590042D01*
X326690Y590108D01*
X326764Y590170D01*
X326840Y590230D01*
X326918Y590286D01*
X326999Y590340D01*
X327082Y590390D01*
X327166Y590436D01*
X327253Y590479D01*
X327341Y590519D01*
X327430Y590555D01*
X327521Y590588D01*
X327614Y590616D01*
X327707Y590641D01*
X327801Y590663D01*
X327896Y590680D01*
X327992Y590694D01*
X328088Y590703D01*
X328184Y590709D01*
X328281Y590711D01*
X328378Y590709D01*
X328474Y590703D01*
X328570Y590694D01*
X328666Y590680D01*
X328761Y590663D01*
X328855Y590641D01*
X328948Y590616D01*
X329041Y590588D01*
X329132Y590555D01*
X329221Y590519D01*
X329309Y590479D01*
X329396Y590436D01*
X329481Y590390D01*
X329563Y590340D01*
X329644Y590286D01*
X329722Y590230D01*
X329798Y590170D01*
X329872Y590108D01*
X329943Y590042D01*
X330011Y589974D01*
X330077Y589903D01*
X330139Y589829D01*
X330199Y589753D01*
X330255Y589675D01*
X330309Y589594D01*
X330359Y589512D01*
X330405Y589427D01*
X330448Y589340D01*
X330488Y589252D01*
X330524Y589163D01*
X330557Y589072D01*
X330585Y588979D01*
X330610Y588886D01*
X330632Y588792D01*
X330649Y588697D01*
X330663Y588601D01*
X330672Y588505D01*
X330678Y588409D01*
X330680Y588312D01*
X330680Y585913D01*
X330680Y588792D02*
X334518Y590711D01*
X334518Y597546D02*
X334516Y597632D01*
X334510Y597718D01*
X334501Y597804D01*
X334487Y597889D01*
X334470Y597973D01*
X334449Y598057D01*
X334424Y598139D01*
X334396Y598220D01*
X334364Y598300D01*
X334328Y598379D01*
X334289Y598455D01*
X334246Y598530D01*
X334201Y598603D01*
X334152Y598674D01*
X334099Y598742D01*
X334044Y598809D01*
X333986Y598872D01*
X333925Y598933D01*
X333862Y598991D01*
X333795Y599046D01*
X333727Y599099D01*
X333656Y599148D01*
X333583Y599193D01*
X333508Y599236D01*
X333432Y599275D01*
X333353Y599311D01*
X333273Y599343D01*
X333192Y599371D01*
X333110Y599396D01*
X333026Y599417D01*
X332942Y599434D01*
X332857Y599448D01*
X332771Y599457D01*
X332685Y599463D01*
X332599Y599465D01*
X334518Y597546D02*
X334516Y597423D01*
X334511Y597300D01*
X334501Y597177D01*
X334488Y597055D01*
X334471Y596933D01*
X334451Y596811D01*
X334427Y596691D01*
X334399Y596571D01*
X334368Y596452D01*
X334332Y596334D01*
X334294Y596217D01*
X334252Y596101D01*
X334206Y595987D01*
X334157Y595874D01*
X334105Y595763D01*
X334049Y595653D01*
X333990Y595545D01*
X333927Y595439D01*
X333862Y595335D01*
X333793Y595232D01*
X333721Y595132D01*
X333646Y595035D01*
X333569Y594939D01*
X333488Y594846D01*
X333405Y594755D01*
X333319Y594667D01*
X327801Y594908D02*
X327715Y594910D01*
X327629Y594916D01*
X327543Y594925D01*
X327458Y594939D01*
X327374Y594956D01*
X327290Y594977D01*
X327208Y595002D01*
X327127Y595030D01*
X327047Y595062D01*
X326968Y595098D01*
X326892Y595137D01*
X326817Y595180D01*
X326744Y595225D01*
X326673Y595274D01*
X326605Y595327D01*
X326538Y595382D01*
X326475Y595440D01*
X326414Y595501D01*
X326356Y595564D01*
X326301Y595631D01*
X326248Y595699D01*
X326199Y595770D01*
X326154Y595843D01*
X326111Y595918D01*
X326072Y595994D01*
X326036Y596073D01*
X326004Y596153D01*
X325976Y596234D01*
X325951Y596316D01*
X325930Y596400D01*
X325913Y596484D01*
X325899Y596569D01*
X325890Y596655D01*
X325884Y596741D01*
X325882Y596827D01*
X325884Y596943D01*
X325889Y597058D01*
X325899Y597174D01*
X325912Y597289D01*
X325928Y597403D01*
X325949Y597517D01*
X325973Y597631D01*
X326001Y597743D01*
X326032Y597854D01*
X326067Y597965D01*
X326105Y598074D01*
X326147Y598182D01*
X326192Y598288D01*
X326241Y598394D01*
X326293Y598497D01*
X326348Y598599D01*
X326407Y598698D01*
X326469Y598796D01*
X326534Y598892D01*
X326602Y598986D01*
X329480Y595868D02*
X329434Y595793D01*
X329384Y595720D01*
X329331Y595650D01*
X329275Y595582D01*
X329216Y595517D01*
X329154Y595454D01*
X329090Y595395D01*
X329022Y595338D01*
X328952Y595284D01*
X328880Y595234D01*
X328806Y595187D01*
X328730Y595143D01*
X328651Y595103D01*
X328571Y595067D01*
X328490Y595034D01*
X328407Y595005D01*
X328322Y594979D01*
X328237Y594957D01*
X328151Y594940D01*
X328064Y594926D01*
X327977Y594916D01*
X327889Y594910D01*
X327801Y594908D01*
X330920Y598506D02*
X330966Y598580D01*
X331016Y598653D01*
X331069Y598723D01*
X331125Y598791D01*
X331184Y598856D01*
X331246Y598919D01*
X331311Y598978D01*
X331378Y599035D01*
X331448Y599089D01*
X331520Y599139D01*
X331594Y599186D01*
X331670Y599230D01*
X331749Y599270D01*
X331829Y599306D01*
X331910Y599339D01*
X331993Y599369D01*
X332078Y599394D01*
X332163Y599416D01*
X332249Y599433D01*
X332336Y599447D01*
X332423Y599457D01*
X332511Y599463D01*
X332599Y599465D01*
X330920Y598506D02*
X329480Y595867D01*
X325882Y605296D02*
X334518Y605296D01*
X325882Y602897D02*
X325882Y607695D01*
X207518Y590361D02*
X198882Y587482D01*
X198882Y593240D02*
X207518Y590361D01*
X207518Y597676D02*
X198882Y597676D01*
X207518Y596717D02*
X207518Y598636D01*
X198882Y598636D02*
X198882Y596717D01*
X198882Y602897D02*
X207518Y602897D01*
X207518Y607695D02*
X198882Y602897D01*
X198882Y607695D02*
X207518Y607695D01*
X305760Y575996D02*
X305760Y570239D01*
X308638Y573117D02*
X302881Y573117D01*
X309118Y580472D02*
X309118Y582871D01*
X309116Y582968D01*
X309110Y583064D01*
X309101Y583160D01*
X309087Y583256D01*
X309070Y583351D01*
X309048Y583445D01*
X309023Y583538D01*
X308995Y583631D01*
X308962Y583722D01*
X308926Y583811D01*
X308886Y583899D01*
X308843Y583986D01*
X308797Y584071D01*
X308747Y584153D01*
X308693Y584234D01*
X308637Y584312D01*
X308577Y584388D01*
X308515Y584462D01*
X308449Y584533D01*
X308381Y584601D01*
X308310Y584667D01*
X308236Y584729D01*
X308160Y584789D01*
X308082Y584845D01*
X308001Y584899D01*
X307919Y584949D01*
X307834Y584995D01*
X307747Y585038D01*
X307659Y585078D01*
X307570Y585114D01*
X307479Y585147D01*
X307386Y585175D01*
X307293Y585200D01*
X307199Y585222D01*
X307104Y585239D01*
X307008Y585253D01*
X306912Y585262D01*
X306816Y585268D01*
X306719Y585270D01*
X306622Y585268D01*
X306526Y585262D01*
X306430Y585253D01*
X306334Y585239D01*
X306239Y585222D01*
X306145Y585200D01*
X306052Y585175D01*
X305959Y585147D01*
X305868Y585114D01*
X305779Y585078D01*
X305691Y585038D01*
X305604Y584995D01*
X305520Y584949D01*
X305437Y584899D01*
X305356Y584845D01*
X305278Y584789D01*
X305202Y584729D01*
X305128Y584667D01*
X305057Y584601D01*
X304989Y584533D01*
X304923Y584462D01*
X304861Y584388D01*
X304801Y584312D01*
X304745Y584234D01*
X304691Y584153D01*
X304641Y584071D01*
X304595Y583986D01*
X304552Y583899D01*
X304512Y583811D01*
X304476Y583722D01*
X304443Y583631D01*
X304415Y583538D01*
X304390Y583445D01*
X304368Y583351D01*
X304351Y583256D01*
X304337Y583160D01*
X304328Y583064D01*
X304322Y582968D01*
X304320Y582871D01*
X300482Y583351D02*
X300482Y580472D01*
X300482Y583351D02*
X300484Y583437D01*
X300490Y583523D01*
X300499Y583609D01*
X300513Y583694D01*
X300530Y583778D01*
X300551Y583862D01*
X300576Y583944D01*
X300604Y584025D01*
X300636Y584105D01*
X300672Y584184D01*
X300711Y584260D01*
X300754Y584335D01*
X300799Y584408D01*
X300848Y584479D01*
X300901Y584547D01*
X300956Y584614D01*
X301014Y584677D01*
X301075Y584738D01*
X301138Y584796D01*
X301205Y584851D01*
X301273Y584904D01*
X301344Y584953D01*
X301417Y584998D01*
X301492Y585041D01*
X301568Y585080D01*
X301647Y585116D01*
X301727Y585148D01*
X301808Y585176D01*
X301890Y585201D01*
X301974Y585222D01*
X302058Y585239D01*
X302143Y585253D01*
X302229Y585262D01*
X302315Y585268D01*
X302401Y585270D01*
X302487Y585268D01*
X302573Y585262D01*
X302659Y585253D01*
X302744Y585239D01*
X302828Y585222D01*
X302912Y585201D01*
X302994Y585176D01*
X303075Y585148D01*
X303155Y585116D01*
X303234Y585080D01*
X303310Y585041D01*
X303385Y584998D01*
X303458Y584953D01*
X303529Y584904D01*
X303597Y584851D01*
X303664Y584796D01*
X303727Y584738D01*
X303788Y584677D01*
X303846Y584614D01*
X303901Y584547D01*
X303954Y584479D01*
X304003Y584408D01*
X304048Y584335D01*
X304091Y584260D01*
X304130Y584184D01*
X304166Y584105D01*
X304198Y584025D01*
X304226Y583944D01*
X304251Y583862D01*
X304272Y583778D01*
X304289Y583694D01*
X304303Y583609D01*
X304312Y583523D01*
X304318Y583437D01*
X304320Y583351D01*
X304320Y581431D01*
X308638Y589032D02*
X309118Y589032D01*
X308638Y589032D02*
X308638Y589511D01*
X309118Y589511D01*
X309118Y589032D01*
X309118Y593274D02*
X309118Y595672D01*
X309116Y595769D01*
X309110Y595865D01*
X309101Y595961D01*
X309087Y596057D01*
X309070Y596152D01*
X309048Y596246D01*
X309023Y596339D01*
X308995Y596432D01*
X308962Y596523D01*
X308926Y596612D01*
X308886Y596700D01*
X308843Y596787D01*
X308797Y596872D01*
X308747Y596954D01*
X308693Y597035D01*
X308637Y597113D01*
X308577Y597189D01*
X308515Y597263D01*
X308449Y597334D01*
X308381Y597402D01*
X308310Y597468D01*
X308236Y597530D01*
X308160Y597590D01*
X308082Y597646D01*
X308001Y597700D01*
X307919Y597750D01*
X307834Y597796D01*
X307747Y597839D01*
X307659Y597879D01*
X307570Y597915D01*
X307479Y597948D01*
X307386Y597976D01*
X307293Y598001D01*
X307199Y598023D01*
X307104Y598040D01*
X307008Y598054D01*
X306912Y598063D01*
X306816Y598069D01*
X306719Y598071D01*
X306622Y598069D01*
X306526Y598063D01*
X306430Y598054D01*
X306334Y598040D01*
X306239Y598023D01*
X306145Y598001D01*
X306052Y597976D01*
X305959Y597948D01*
X305868Y597915D01*
X305779Y597879D01*
X305691Y597839D01*
X305604Y597796D01*
X305520Y597750D01*
X305437Y597700D01*
X305356Y597646D01*
X305278Y597590D01*
X305202Y597530D01*
X305128Y597468D01*
X305057Y597402D01*
X304989Y597334D01*
X304923Y597263D01*
X304861Y597189D01*
X304801Y597113D01*
X304745Y597035D01*
X304691Y596954D01*
X304641Y596872D01*
X304595Y596787D01*
X304552Y596700D01*
X304512Y596612D01*
X304476Y596523D01*
X304443Y596432D01*
X304415Y596339D01*
X304390Y596246D01*
X304368Y596152D01*
X304351Y596057D01*
X304337Y595961D01*
X304328Y595865D01*
X304322Y595769D01*
X304320Y595672D01*
X300482Y596152D02*
X300482Y593274D01*
X300482Y596152D02*
X300484Y596238D01*
X300490Y596324D01*
X300499Y596410D01*
X300513Y596495D01*
X300530Y596579D01*
X300551Y596663D01*
X300576Y596745D01*
X300604Y596826D01*
X300636Y596906D01*
X300672Y596985D01*
X300711Y597061D01*
X300754Y597136D01*
X300799Y597209D01*
X300848Y597280D01*
X300901Y597348D01*
X300956Y597415D01*
X301014Y597478D01*
X301075Y597539D01*
X301138Y597597D01*
X301205Y597652D01*
X301273Y597705D01*
X301344Y597754D01*
X301417Y597799D01*
X301492Y597842D01*
X301568Y597881D01*
X301647Y597917D01*
X301727Y597949D01*
X301808Y597977D01*
X301890Y598002D01*
X301974Y598023D01*
X302058Y598040D01*
X302143Y598054D01*
X302229Y598063D01*
X302315Y598069D01*
X302401Y598071D01*
X302487Y598069D01*
X302573Y598063D01*
X302659Y598054D01*
X302744Y598040D01*
X302828Y598023D01*
X302912Y598002D01*
X302994Y597977D01*
X303075Y597949D01*
X303155Y597917D01*
X303234Y597881D01*
X303310Y597842D01*
X303385Y597799D01*
X303458Y597754D01*
X303529Y597705D01*
X303597Y597652D01*
X303664Y597597D01*
X303727Y597539D01*
X303788Y597478D01*
X303846Y597415D01*
X303901Y597348D01*
X303954Y597280D01*
X304003Y597209D01*
X304048Y597136D01*
X304091Y597061D01*
X304130Y596985D01*
X304166Y596906D01*
X304198Y596826D01*
X304226Y596745D01*
X304251Y596663D01*
X304272Y596579D01*
X304289Y596495D01*
X304303Y596410D01*
X304312Y596324D01*
X304318Y596238D01*
X304320Y596152D01*
X304320Y594233D01*
X300482Y601938D02*
X309118Y604816D01*
X300482Y607695D01*
X152400Y602897D02*
X152230Y602899D01*
X152060Y602905D01*
X151891Y602915D01*
X151721Y602929D01*
X151552Y602948D01*
X151384Y602970D01*
X151216Y602996D01*
X151049Y603026D01*
X150883Y603061D01*
X150717Y603099D01*
X150552Y603141D01*
X150389Y603187D01*
X150227Y603237D01*
X150065Y603291D01*
X149906Y603348D01*
X149747Y603410D01*
X149590Y603475D01*
X149435Y603544D01*
X149281Y603617D01*
X149205Y603645D01*
X149130Y603677D01*
X149056Y603712D01*
X148984Y603750D01*
X148914Y603792D01*
X148846Y603837D01*
X148780Y603885D01*
X148716Y603936D01*
X148655Y603990D01*
X148596Y604046D01*
X148540Y604106D01*
X148487Y604167D01*
X148437Y604231D01*
X148389Y604298D01*
X148345Y604366D01*
X148304Y604437D01*
X148266Y604509D01*
X148232Y604583D01*
X148201Y604658D01*
X148173Y604735D01*
X148149Y604813D01*
X148129Y604892D01*
X148112Y604972D01*
X148099Y605052D01*
X148089Y605133D01*
X148084Y605214D01*
X148082Y605296D01*
X148084Y605378D01*
X148089Y605459D01*
X148099Y605540D01*
X148112Y605620D01*
X148129Y605700D01*
X148149Y605779D01*
X148173Y605857D01*
X148201Y605934D01*
X148232Y606009D01*
X148266Y606083D01*
X148304Y606155D01*
X148345Y606226D01*
X148389Y606294D01*
X148437Y606361D01*
X148487Y606425D01*
X148540Y606486D01*
X148596Y606546D01*
X148655Y606602D01*
X148716Y606656D01*
X148780Y606707D01*
X148846Y606755D01*
X148914Y606800D01*
X148984Y606842D01*
X149056Y606880D01*
X149130Y606915D01*
X149205Y606947D01*
X149281Y606975D01*
X149435Y607048D01*
X149590Y607117D01*
X149747Y607182D01*
X149906Y607244D01*
X150065Y607301D01*
X150227Y607355D01*
X150389Y607405D01*
X150552Y607451D01*
X150717Y607493D01*
X150883Y607531D01*
X151049Y607566D01*
X151216Y607596D01*
X151384Y607622D01*
X151552Y607644D01*
X151721Y607663D01*
X151891Y607677D01*
X152060Y607687D01*
X152230Y607693D01*
X152400Y607695D01*
X152400Y602897D02*
X152570Y602899D01*
X152740Y602905D01*
X152909Y602915D01*
X153079Y602929D01*
X153248Y602948D01*
X153416Y602970D01*
X153584Y602996D01*
X153751Y603026D01*
X153917Y603061D01*
X154083Y603099D01*
X154248Y603141D01*
X154411Y603187D01*
X154573Y603237D01*
X154735Y603291D01*
X154894Y603348D01*
X155053Y603410D01*
X155210Y603475D01*
X155365Y603544D01*
X155519Y603617D01*
X155595Y603645D01*
X155670Y603677D01*
X155744Y603712D01*
X155816Y603750D01*
X155886Y603792D01*
X155954Y603837D01*
X156020Y603885D01*
X156084Y603936D01*
X156145Y603990D01*
X156204Y604046D01*
X156260Y604106D01*
X156313Y604167D01*
X156363Y604231D01*
X156411Y604298D01*
X156455Y604366D01*
X156496Y604437D01*
X156534Y604509D01*
X156568Y604583D01*
X156599Y604658D01*
X156627Y604735D01*
X156651Y604813D01*
X156671Y604892D01*
X156688Y604972D01*
X156701Y605052D01*
X156711Y605133D01*
X156716Y605214D01*
X156718Y605296D01*
X155519Y606975D02*
X155365Y607048D01*
X155210Y607117D01*
X155053Y607182D01*
X154894Y607244D01*
X154735Y607301D01*
X154573Y607355D01*
X154411Y607405D01*
X154248Y607451D01*
X154083Y607493D01*
X153917Y607531D01*
X153751Y607566D01*
X153584Y607596D01*
X153416Y607622D01*
X153248Y607644D01*
X153079Y607663D01*
X152909Y607677D01*
X152740Y607687D01*
X152570Y607693D01*
X152400Y607695D01*
X155519Y606975D02*
X155595Y606947D01*
X155670Y606915D01*
X155744Y606880D01*
X155816Y606842D01*
X155886Y606800D01*
X155954Y606755D01*
X156020Y606707D01*
X156084Y606656D01*
X156145Y606602D01*
X156204Y606546D01*
X156260Y606486D01*
X156313Y606425D01*
X156363Y606361D01*
X156411Y606294D01*
X156455Y606226D01*
X156496Y606155D01*
X156534Y606083D01*
X156568Y606009D01*
X156599Y605934D01*
X156627Y605857D01*
X156651Y605779D01*
X156671Y605700D01*
X156688Y605620D01*
X156701Y605540D01*
X156711Y605459D01*
X156716Y605378D01*
X156718Y605296D01*
X154799Y603377D02*
X150001Y607215D01*
X124601Y602897D02*
X122682Y605296D01*
X131318Y605296D01*
X131318Y602897D02*
X131318Y607695D01*
X99441Y607695D02*
X99349Y607693D01*
X99258Y607687D01*
X99167Y607678D01*
X99076Y607664D01*
X98986Y607647D01*
X98897Y607625D01*
X98809Y607600D01*
X98722Y607572D01*
X98636Y607539D01*
X98552Y607503D01*
X98469Y607464D01*
X98388Y607421D01*
X98309Y607374D01*
X98232Y607325D01*
X98157Y607272D01*
X98085Y607216D01*
X98015Y607157D01*
X97947Y607095D01*
X97882Y607030D01*
X97820Y606962D01*
X97761Y606892D01*
X97705Y606820D01*
X97652Y606745D01*
X97603Y606668D01*
X97556Y606589D01*
X97513Y606508D01*
X97474Y606425D01*
X97438Y606341D01*
X97405Y606255D01*
X97377Y606168D01*
X97352Y606080D01*
X97330Y605991D01*
X97313Y605901D01*
X97299Y605810D01*
X97290Y605719D01*
X97284Y605628D01*
X97282Y605536D01*
X97284Y605433D01*
X97290Y605331D01*
X97299Y605229D01*
X97312Y605127D01*
X97329Y605026D01*
X97350Y604925D01*
X97374Y604826D01*
X97403Y604727D01*
X97434Y604630D01*
X97470Y604533D01*
X97508Y604438D01*
X97551Y604345D01*
X97597Y604253D01*
X97646Y604163D01*
X97698Y604075D01*
X97754Y603988D01*
X97813Y603904D01*
X97874Y603823D01*
X97939Y603743D01*
X98007Y603666D01*
X98078Y603591D01*
X98151Y603520D01*
X98227Y603451D01*
X98305Y603384D01*
X98386Y603321D01*
X98469Y603261D01*
X98554Y603204D01*
X98641Y603150D01*
X98731Y603099D01*
X98822Y603052D01*
X98914Y603008D01*
X99009Y602967D01*
X99104Y602930D01*
X99201Y602897D01*
X101120Y606975D02*
X101054Y607042D01*
X100985Y607106D01*
X100914Y607167D01*
X100840Y607225D01*
X100764Y607280D01*
X100686Y607332D01*
X100606Y607381D01*
X100524Y607427D01*
X100440Y607469D01*
X100354Y607508D01*
X100267Y607543D01*
X100179Y607574D01*
X100089Y607602D01*
X99999Y607627D01*
X99907Y607648D01*
X99815Y607665D01*
X99722Y607678D01*
X99629Y607687D01*
X99535Y607693D01*
X99441Y607695D01*
X101120Y606975D02*
X105918Y602897D01*
X105918Y607695D01*
X80518Y605296D02*
X80518Y602897D01*
X80518Y605296D02*
X80516Y605393D01*
X80510Y605489D01*
X80501Y605585D01*
X80487Y605681D01*
X80470Y605776D01*
X80448Y605870D01*
X80423Y605963D01*
X80395Y606056D01*
X80362Y606147D01*
X80326Y606236D01*
X80286Y606324D01*
X80243Y606411D01*
X80197Y606496D01*
X80147Y606578D01*
X80093Y606659D01*
X80037Y606737D01*
X79977Y606813D01*
X79915Y606887D01*
X79849Y606958D01*
X79781Y607026D01*
X79710Y607092D01*
X79636Y607154D01*
X79560Y607214D01*
X79482Y607270D01*
X79401Y607324D01*
X79319Y607374D01*
X79234Y607420D01*
X79147Y607463D01*
X79059Y607503D01*
X78970Y607539D01*
X78879Y607572D01*
X78786Y607600D01*
X78693Y607625D01*
X78599Y607647D01*
X78504Y607664D01*
X78408Y607678D01*
X78312Y607687D01*
X78216Y607693D01*
X78119Y607695D01*
X78022Y607693D01*
X77926Y607687D01*
X77830Y607678D01*
X77734Y607664D01*
X77639Y607647D01*
X77545Y607625D01*
X77452Y607600D01*
X77359Y607572D01*
X77268Y607539D01*
X77179Y607503D01*
X77091Y607463D01*
X77004Y607420D01*
X76920Y607374D01*
X76837Y607324D01*
X76756Y607270D01*
X76678Y607214D01*
X76602Y607154D01*
X76528Y607092D01*
X76457Y607026D01*
X76389Y606958D01*
X76323Y606887D01*
X76261Y606813D01*
X76201Y606737D01*
X76145Y606659D01*
X76091Y606578D01*
X76041Y606496D01*
X75995Y606411D01*
X75952Y606324D01*
X75912Y606236D01*
X75876Y606147D01*
X75843Y606056D01*
X75815Y605963D01*
X75790Y605870D01*
X75768Y605776D01*
X75751Y605681D01*
X75737Y605585D01*
X75728Y605489D01*
X75722Y605393D01*
X75720Y605296D01*
X71882Y605776D02*
X71882Y602897D01*
X71882Y605776D02*
X71884Y605862D01*
X71890Y605948D01*
X71899Y606034D01*
X71913Y606119D01*
X71930Y606203D01*
X71951Y606287D01*
X71976Y606369D01*
X72004Y606450D01*
X72036Y606530D01*
X72072Y606609D01*
X72111Y606685D01*
X72154Y606760D01*
X72199Y606833D01*
X72248Y606904D01*
X72301Y606972D01*
X72356Y607039D01*
X72414Y607102D01*
X72475Y607163D01*
X72538Y607221D01*
X72605Y607276D01*
X72673Y607329D01*
X72744Y607378D01*
X72817Y607423D01*
X72892Y607466D01*
X72968Y607505D01*
X73047Y607541D01*
X73127Y607573D01*
X73208Y607601D01*
X73290Y607626D01*
X73374Y607647D01*
X73458Y607664D01*
X73543Y607678D01*
X73629Y607687D01*
X73715Y607693D01*
X73801Y607695D01*
X73887Y607693D01*
X73973Y607687D01*
X74059Y607678D01*
X74144Y607664D01*
X74228Y607647D01*
X74312Y607626D01*
X74394Y607601D01*
X74475Y607573D01*
X74555Y607541D01*
X74634Y607505D01*
X74710Y607466D01*
X74785Y607423D01*
X74858Y607378D01*
X74929Y607329D01*
X74997Y607276D01*
X75064Y607221D01*
X75127Y607163D01*
X75188Y607102D01*
X75246Y607039D01*
X75301Y606972D01*
X75354Y606904D01*
X75403Y606833D01*
X75448Y606760D01*
X75491Y606685D01*
X75530Y606609D01*
X75566Y606530D01*
X75598Y606450D01*
X75626Y606369D01*
X75651Y606287D01*
X75672Y606203D01*
X75689Y606119D01*
X75703Y606034D01*
X75712Y605948D01*
X75718Y605862D01*
X75720Y605776D01*
X75720Y603857D01*
X53199Y602897D02*
X46482Y604816D01*
X53199Y602897D02*
X53199Y607695D01*
X51280Y606256D02*
X55118Y606256D01*
X29718Y605776D02*
X29718Y602897D01*
X29718Y605776D02*
X29716Y605862D01*
X29710Y605948D01*
X29701Y606034D01*
X29687Y606119D01*
X29670Y606203D01*
X29649Y606287D01*
X29624Y606369D01*
X29596Y606450D01*
X29564Y606530D01*
X29528Y606609D01*
X29489Y606685D01*
X29446Y606760D01*
X29401Y606833D01*
X29352Y606904D01*
X29299Y606972D01*
X29244Y607039D01*
X29186Y607102D01*
X29125Y607163D01*
X29062Y607221D01*
X28995Y607276D01*
X28927Y607329D01*
X28856Y607378D01*
X28783Y607423D01*
X28708Y607466D01*
X28632Y607505D01*
X28553Y607541D01*
X28473Y607573D01*
X28392Y607601D01*
X28310Y607626D01*
X28226Y607647D01*
X28142Y607664D01*
X28057Y607678D01*
X27971Y607687D01*
X27885Y607693D01*
X27799Y607695D01*
X26839Y607695D01*
X26753Y607693D01*
X26667Y607687D01*
X26581Y607678D01*
X26496Y607664D01*
X26412Y607647D01*
X26328Y607626D01*
X26246Y607601D01*
X26165Y607573D01*
X26085Y607541D01*
X26006Y607505D01*
X25930Y607466D01*
X25855Y607423D01*
X25782Y607378D01*
X25711Y607329D01*
X25643Y607276D01*
X25576Y607221D01*
X25513Y607163D01*
X25452Y607102D01*
X25394Y607039D01*
X25339Y606972D01*
X25287Y606904D01*
X25237Y606833D01*
X25192Y606760D01*
X25149Y606685D01*
X25110Y606609D01*
X25074Y606530D01*
X25042Y606450D01*
X25014Y606369D01*
X24989Y606287D01*
X24968Y606203D01*
X24951Y606119D01*
X24937Y606034D01*
X24928Y605948D01*
X24922Y605862D01*
X24920Y605776D01*
X24920Y602897D01*
X21082Y602897D01*
X21082Y607695D01*
X393220Y157960D02*
X393220Y156520D01*
X393220Y157960D02*
X398018Y157960D01*
X398018Y155081D01*
X398016Y154995D01*
X398010Y154909D01*
X398001Y154823D01*
X397987Y154738D01*
X397970Y154654D01*
X397949Y154570D01*
X397924Y154488D01*
X397896Y154407D01*
X397864Y154327D01*
X397828Y154248D01*
X397789Y154172D01*
X397746Y154097D01*
X397701Y154024D01*
X397652Y153953D01*
X397599Y153885D01*
X397544Y153818D01*
X397486Y153755D01*
X397425Y153694D01*
X397362Y153636D01*
X397295Y153581D01*
X397227Y153529D01*
X397156Y153479D01*
X397083Y153434D01*
X397008Y153391D01*
X396932Y153352D01*
X396853Y153316D01*
X396773Y153284D01*
X396692Y153256D01*
X396610Y153231D01*
X396526Y153210D01*
X396442Y153193D01*
X396357Y153179D01*
X396271Y153170D01*
X396185Y153164D01*
X396099Y153162D01*
X391301Y153162D01*
X391215Y153164D01*
X391129Y153170D01*
X391043Y153179D01*
X390958Y153193D01*
X390874Y153210D01*
X390790Y153231D01*
X390708Y153256D01*
X390627Y153284D01*
X390547Y153316D01*
X390468Y153352D01*
X390392Y153391D01*
X390317Y153434D01*
X390244Y153479D01*
X390173Y153528D01*
X390105Y153581D01*
X390038Y153636D01*
X389975Y153694D01*
X389914Y153755D01*
X389856Y153818D01*
X389801Y153885D01*
X389749Y153953D01*
X389699Y154024D01*
X389654Y154097D01*
X389611Y154172D01*
X389572Y154248D01*
X389536Y154327D01*
X389504Y154407D01*
X389476Y154488D01*
X389451Y154570D01*
X389430Y154654D01*
X389413Y154738D01*
X389399Y154823D01*
X389390Y154909D01*
X389384Y154995D01*
X389382Y155081D01*
X389382Y157960D01*
X389382Y162916D02*
X398018Y162916D01*
X398018Y167713D02*
X389382Y162916D01*
X389382Y167713D02*
X398018Y167713D01*
X398018Y172669D02*
X389382Y172669D01*
X389382Y175068D01*
X389384Y175165D01*
X389390Y175261D01*
X389399Y175357D01*
X389413Y175453D01*
X389430Y175548D01*
X389452Y175642D01*
X389477Y175735D01*
X389505Y175828D01*
X389538Y175919D01*
X389574Y176008D01*
X389614Y176096D01*
X389657Y176183D01*
X389703Y176268D01*
X389753Y176350D01*
X389807Y176431D01*
X389863Y176509D01*
X389923Y176585D01*
X389985Y176659D01*
X390051Y176730D01*
X390119Y176798D01*
X390190Y176864D01*
X390264Y176926D01*
X390340Y176986D01*
X390418Y177042D01*
X390499Y177096D01*
X390582Y177146D01*
X390666Y177192D01*
X390753Y177235D01*
X390841Y177275D01*
X390930Y177311D01*
X391021Y177344D01*
X391114Y177372D01*
X391207Y177397D01*
X391301Y177419D01*
X391396Y177436D01*
X391492Y177450D01*
X391588Y177459D01*
X391684Y177465D01*
X391781Y177467D01*
X395619Y177467D01*
X395716Y177465D01*
X395812Y177459D01*
X395908Y177450D01*
X396004Y177436D01*
X396099Y177419D01*
X396193Y177397D01*
X396286Y177372D01*
X396379Y177344D01*
X396470Y177311D01*
X396559Y177275D01*
X396647Y177235D01*
X396734Y177192D01*
X396819Y177146D01*
X396901Y177096D01*
X396982Y177042D01*
X397060Y176986D01*
X397136Y176926D01*
X397210Y176864D01*
X397281Y176798D01*
X397349Y176730D01*
X397415Y176659D01*
X397477Y176585D01*
X397537Y176509D01*
X397593Y176431D01*
X397647Y176350D01*
X397697Y176268D01*
X397743Y176183D01*
X397786Y176096D01*
X397826Y176008D01*
X397862Y175919D01*
X397895Y175828D01*
X397923Y175735D01*
X397948Y175642D01*
X397970Y175548D01*
X397987Y175453D01*
X398001Y175357D01*
X398010Y175261D01*
X398016Y175165D01*
X398018Y175068D01*
X398018Y172669D01*
X365901Y153162D02*
X363982Y155561D01*
X372618Y155561D01*
X372618Y153162D02*
X372618Y157960D01*
X372618Y162306D02*
X372618Y164705D01*
X372616Y164802D01*
X372610Y164898D01*
X372601Y164994D01*
X372587Y165090D01*
X372570Y165185D01*
X372548Y165279D01*
X372523Y165372D01*
X372495Y165465D01*
X372462Y165556D01*
X372426Y165645D01*
X372386Y165733D01*
X372343Y165820D01*
X372297Y165905D01*
X372247Y165987D01*
X372193Y166068D01*
X372137Y166146D01*
X372077Y166222D01*
X372015Y166296D01*
X371949Y166367D01*
X371881Y166435D01*
X371810Y166501D01*
X371736Y166563D01*
X371660Y166623D01*
X371582Y166679D01*
X371501Y166733D01*
X371419Y166783D01*
X371334Y166829D01*
X371247Y166872D01*
X371159Y166912D01*
X371070Y166948D01*
X370979Y166981D01*
X370886Y167009D01*
X370793Y167034D01*
X370699Y167056D01*
X370604Y167073D01*
X370508Y167087D01*
X370412Y167096D01*
X370316Y167102D01*
X370219Y167104D01*
X370122Y167102D01*
X370026Y167096D01*
X369930Y167087D01*
X369834Y167073D01*
X369739Y167056D01*
X369645Y167034D01*
X369552Y167009D01*
X369459Y166981D01*
X369368Y166948D01*
X369279Y166912D01*
X369191Y166872D01*
X369104Y166829D01*
X369020Y166783D01*
X368937Y166733D01*
X368856Y166679D01*
X368778Y166623D01*
X368702Y166563D01*
X368628Y166501D01*
X368557Y166435D01*
X368489Y166367D01*
X368423Y166296D01*
X368361Y166222D01*
X368301Y166146D01*
X368245Y166068D01*
X368191Y165987D01*
X368141Y165905D01*
X368095Y165820D01*
X368052Y165733D01*
X368012Y165645D01*
X367976Y165556D01*
X367943Y165465D01*
X367915Y165372D01*
X367890Y165279D01*
X367868Y165185D01*
X367851Y165090D01*
X367837Y164994D01*
X367828Y164898D01*
X367822Y164802D01*
X367820Y164705D01*
X363982Y165185D02*
X363982Y162306D01*
X363982Y165185D02*
X363984Y165271D01*
X363990Y165357D01*
X363999Y165443D01*
X364013Y165528D01*
X364030Y165612D01*
X364051Y165696D01*
X364076Y165778D01*
X364104Y165859D01*
X364136Y165939D01*
X364172Y166018D01*
X364211Y166094D01*
X364254Y166169D01*
X364299Y166242D01*
X364348Y166313D01*
X364401Y166381D01*
X364456Y166448D01*
X364514Y166511D01*
X364575Y166572D01*
X364638Y166630D01*
X364705Y166685D01*
X364773Y166738D01*
X364844Y166787D01*
X364917Y166832D01*
X364992Y166875D01*
X365068Y166914D01*
X365147Y166950D01*
X365227Y166982D01*
X365308Y167010D01*
X365390Y167035D01*
X365474Y167056D01*
X365558Y167073D01*
X365643Y167087D01*
X365729Y167096D01*
X365815Y167102D01*
X365901Y167104D01*
X365987Y167102D01*
X366073Y167096D01*
X366159Y167087D01*
X366244Y167073D01*
X366328Y167056D01*
X366412Y167035D01*
X366494Y167010D01*
X366575Y166982D01*
X366655Y166950D01*
X366734Y166914D01*
X366810Y166875D01*
X366885Y166832D01*
X366958Y166787D01*
X367029Y166738D01*
X367097Y166685D01*
X367164Y166630D01*
X367227Y166572D01*
X367288Y166511D01*
X367346Y166448D01*
X367401Y166381D01*
X367454Y166313D01*
X367503Y166242D01*
X367548Y166169D01*
X367591Y166094D01*
X367630Y166018D01*
X367666Y165939D01*
X367698Y165859D01*
X367726Y165778D01*
X367751Y165696D01*
X367772Y165612D01*
X367789Y165528D01*
X367803Y165443D01*
X367812Y165357D01*
X367818Y165271D01*
X367820Y165185D01*
X367820Y163266D01*
X340501Y153162D02*
X338582Y155561D01*
X347218Y155561D01*
X347218Y153162D02*
X347218Y157960D01*
X338582Y164945D02*
X338584Y165037D01*
X338590Y165128D01*
X338599Y165219D01*
X338613Y165310D01*
X338630Y165400D01*
X338652Y165489D01*
X338677Y165577D01*
X338705Y165664D01*
X338738Y165750D01*
X338774Y165834D01*
X338813Y165917D01*
X338856Y165998D01*
X338903Y166077D01*
X338952Y166154D01*
X339005Y166229D01*
X339061Y166301D01*
X339120Y166371D01*
X339182Y166439D01*
X339247Y166504D01*
X339315Y166566D01*
X339385Y166625D01*
X339457Y166681D01*
X339532Y166734D01*
X339609Y166783D01*
X339688Y166830D01*
X339769Y166873D01*
X339852Y166912D01*
X339936Y166948D01*
X340022Y166981D01*
X340109Y167009D01*
X340197Y167034D01*
X340286Y167056D01*
X340376Y167073D01*
X340467Y167087D01*
X340558Y167096D01*
X340649Y167102D01*
X340741Y167104D01*
X338582Y164945D02*
X338584Y164842D01*
X338590Y164740D01*
X338599Y164638D01*
X338612Y164536D01*
X338629Y164435D01*
X338650Y164334D01*
X338674Y164235D01*
X338703Y164136D01*
X338734Y164039D01*
X338770Y163942D01*
X338808Y163847D01*
X338851Y163754D01*
X338897Y163662D01*
X338946Y163572D01*
X338998Y163484D01*
X339054Y163397D01*
X339113Y163313D01*
X339174Y163232D01*
X339239Y163152D01*
X339307Y163075D01*
X339378Y163000D01*
X339451Y162929D01*
X339527Y162860D01*
X339605Y162793D01*
X339686Y162730D01*
X339769Y162670D01*
X339854Y162613D01*
X339941Y162559D01*
X340031Y162508D01*
X340122Y162461D01*
X340214Y162417D01*
X340309Y162376D01*
X340404Y162339D01*
X340501Y162306D01*
X342420Y166384D02*
X342354Y166451D01*
X342285Y166515D01*
X342214Y166576D01*
X342140Y166634D01*
X342064Y166689D01*
X341986Y166741D01*
X341906Y166790D01*
X341824Y166836D01*
X341740Y166878D01*
X341654Y166917D01*
X341567Y166952D01*
X341479Y166983D01*
X341389Y167011D01*
X341299Y167036D01*
X341207Y167057D01*
X341115Y167074D01*
X341022Y167087D01*
X340929Y167096D01*
X340835Y167102D01*
X340741Y167104D01*
X342420Y166384D02*
X347218Y162306D01*
X347218Y167104D01*
X315101Y153162D02*
X313182Y155561D01*
X321818Y155561D01*
X321818Y153162D02*
X321818Y157960D01*
X315101Y162306D02*
X313182Y164705D01*
X321818Y164705D01*
X321818Y162306D02*
X321818Y167104D01*
X414782Y156041D02*
X423418Y153162D01*
X423418Y158919D02*
X414782Y156041D01*
X421259Y158200D02*
X421259Y153882D01*
X423418Y163175D02*
X414782Y163175D01*
X414782Y165574D01*
X414784Y165671D01*
X414790Y165767D01*
X414799Y165863D01*
X414813Y165959D01*
X414830Y166054D01*
X414852Y166148D01*
X414877Y166241D01*
X414905Y166334D01*
X414938Y166425D01*
X414974Y166514D01*
X415014Y166602D01*
X415057Y166689D01*
X415103Y166774D01*
X415153Y166856D01*
X415207Y166937D01*
X415263Y167015D01*
X415323Y167091D01*
X415385Y167165D01*
X415451Y167236D01*
X415519Y167304D01*
X415590Y167370D01*
X415664Y167432D01*
X415740Y167492D01*
X415818Y167548D01*
X415899Y167602D01*
X415982Y167652D01*
X416066Y167698D01*
X416153Y167741D01*
X416241Y167781D01*
X416330Y167817D01*
X416421Y167850D01*
X416514Y167878D01*
X416607Y167903D01*
X416701Y167925D01*
X416796Y167942D01*
X416892Y167956D01*
X416988Y167965D01*
X417084Y167971D01*
X417181Y167973D01*
X417278Y167971D01*
X417374Y167965D01*
X417470Y167956D01*
X417566Y167942D01*
X417661Y167925D01*
X417755Y167903D01*
X417848Y167878D01*
X417941Y167850D01*
X418032Y167817D01*
X418121Y167781D01*
X418209Y167741D01*
X418296Y167698D01*
X418381Y167652D01*
X418463Y167602D01*
X418544Y167548D01*
X418622Y167492D01*
X418698Y167432D01*
X418772Y167370D01*
X418843Y167304D01*
X418911Y167236D01*
X418977Y167165D01*
X419039Y167091D01*
X419099Y167015D01*
X419155Y166937D01*
X419209Y166856D01*
X419259Y166774D01*
X419305Y166689D01*
X419348Y166602D01*
X419388Y166514D01*
X419424Y166425D01*
X419457Y166334D01*
X419485Y166241D01*
X419510Y166148D01*
X419532Y166054D01*
X419549Y165959D01*
X419563Y165863D01*
X419572Y165767D01*
X419578Y165671D01*
X419580Y165574D01*
X419580Y163175D01*
X419580Y166054D02*
X423418Y167973D01*
X423418Y172565D02*
X423418Y176403D01*
X423418Y172565D02*
X414782Y172565D01*
X414782Y176403D01*
X418620Y175444D02*
X418620Y172565D01*
X414782Y180490D02*
X423418Y180490D01*
X414782Y180490D02*
X414782Y184328D01*
X418620Y184328D02*
X418620Y180490D01*
X289701Y153162D02*
X287782Y155561D01*
X296418Y155561D01*
X296418Y153162D02*
X296418Y157960D01*
X292100Y162306D02*
X291930Y162308D01*
X291760Y162314D01*
X291591Y162324D01*
X291421Y162338D01*
X291252Y162357D01*
X291084Y162379D01*
X290916Y162405D01*
X290749Y162435D01*
X290583Y162470D01*
X290417Y162508D01*
X290252Y162550D01*
X290089Y162596D01*
X289927Y162646D01*
X289765Y162700D01*
X289606Y162757D01*
X289447Y162819D01*
X289290Y162884D01*
X289135Y162953D01*
X288981Y163026D01*
X288905Y163054D01*
X288830Y163086D01*
X288756Y163121D01*
X288684Y163159D01*
X288614Y163201D01*
X288546Y163246D01*
X288480Y163294D01*
X288416Y163345D01*
X288355Y163399D01*
X288296Y163455D01*
X288240Y163515D01*
X288187Y163576D01*
X288137Y163640D01*
X288089Y163707D01*
X288045Y163775D01*
X288004Y163846D01*
X287966Y163918D01*
X287932Y163992D01*
X287901Y164067D01*
X287873Y164144D01*
X287849Y164222D01*
X287829Y164301D01*
X287812Y164381D01*
X287799Y164461D01*
X287789Y164542D01*
X287784Y164623D01*
X287782Y164705D01*
X287784Y164787D01*
X287789Y164868D01*
X287799Y164949D01*
X287812Y165029D01*
X287829Y165109D01*
X287849Y165188D01*
X287873Y165266D01*
X287901Y165343D01*
X287932Y165418D01*
X287966Y165492D01*
X288004Y165564D01*
X288045Y165635D01*
X288089Y165703D01*
X288137Y165770D01*
X288187Y165834D01*
X288240Y165895D01*
X288296Y165955D01*
X288355Y166011D01*
X288416Y166065D01*
X288480Y166116D01*
X288546Y166164D01*
X288614Y166209D01*
X288684Y166251D01*
X288756Y166289D01*
X288830Y166324D01*
X288905Y166356D01*
X288981Y166384D01*
X289135Y166457D01*
X289290Y166526D01*
X289447Y166591D01*
X289606Y166653D01*
X289765Y166710D01*
X289927Y166764D01*
X290089Y166814D01*
X290252Y166860D01*
X290417Y166902D01*
X290583Y166940D01*
X290749Y166975D01*
X290916Y167005D01*
X291084Y167031D01*
X291252Y167053D01*
X291421Y167072D01*
X291591Y167086D01*
X291760Y167096D01*
X291930Y167102D01*
X292100Y167104D01*
X292100Y162306D02*
X292270Y162308D01*
X292440Y162314D01*
X292609Y162324D01*
X292779Y162338D01*
X292948Y162357D01*
X293116Y162379D01*
X293284Y162405D01*
X293451Y162435D01*
X293617Y162470D01*
X293783Y162508D01*
X293948Y162550D01*
X294111Y162596D01*
X294273Y162646D01*
X294435Y162700D01*
X294594Y162757D01*
X294753Y162819D01*
X294910Y162884D01*
X295065Y162953D01*
X295219Y163026D01*
X295295Y163054D01*
X295370Y163086D01*
X295444Y163121D01*
X295516Y163159D01*
X295586Y163201D01*
X295654Y163246D01*
X295720Y163294D01*
X295784Y163345D01*
X295845Y163399D01*
X295904Y163455D01*
X295960Y163515D01*
X296013Y163576D01*
X296063Y163640D01*
X296111Y163707D01*
X296155Y163775D01*
X296196Y163846D01*
X296234Y163918D01*
X296268Y163992D01*
X296299Y164067D01*
X296327Y164144D01*
X296351Y164222D01*
X296371Y164301D01*
X296388Y164381D01*
X296401Y164461D01*
X296411Y164542D01*
X296416Y164623D01*
X296418Y164705D01*
X295219Y166384D02*
X295065Y166457D01*
X294910Y166526D01*
X294753Y166591D01*
X294594Y166653D01*
X294435Y166710D01*
X294273Y166764D01*
X294111Y166814D01*
X293948Y166860D01*
X293783Y166902D01*
X293617Y166940D01*
X293451Y166975D01*
X293284Y167005D01*
X293116Y167031D01*
X292948Y167053D01*
X292779Y167072D01*
X292609Y167086D01*
X292440Y167096D01*
X292270Y167102D01*
X292100Y167104D01*
X295219Y166384D02*
X295295Y166356D01*
X295370Y166324D01*
X295444Y166289D01*
X295516Y166251D01*
X295586Y166209D01*
X295654Y166164D01*
X295720Y166116D01*
X295784Y166065D01*
X295845Y166011D01*
X295904Y165955D01*
X295960Y165895D01*
X296013Y165834D01*
X296063Y165770D01*
X296111Y165703D01*
X296155Y165635D01*
X296196Y165564D01*
X296234Y165492D01*
X296268Y165418D01*
X296299Y165343D01*
X296327Y165266D01*
X296351Y165188D01*
X296371Y165109D01*
X296388Y165029D01*
X296401Y164949D01*
X296411Y164868D01*
X296416Y164787D01*
X296418Y164705D01*
X294499Y162786D02*
X289701Y166624D01*
X267180Y157960D02*
X267180Y155081D01*
X267178Y154995D01*
X267172Y154909D01*
X267163Y154823D01*
X267149Y154738D01*
X267132Y154654D01*
X267111Y154570D01*
X267086Y154488D01*
X267058Y154407D01*
X267026Y154327D01*
X266990Y154248D01*
X266951Y154172D01*
X266908Y154097D01*
X266863Y154024D01*
X266814Y153953D01*
X266761Y153885D01*
X266706Y153818D01*
X266648Y153755D01*
X266587Y153694D01*
X266524Y153636D01*
X266457Y153581D01*
X266389Y153529D01*
X266318Y153479D01*
X266245Y153434D01*
X266170Y153391D01*
X266094Y153352D01*
X266015Y153316D01*
X265935Y153284D01*
X265854Y153256D01*
X265772Y153231D01*
X265688Y153210D01*
X265604Y153193D01*
X265519Y153179D01*
X265433Y153170D01*
X265347Y153164D01*
X265261Y153162D01*
X264781Y153162D01*
X264684Y153164D01*
X264588Y153170D01*
X264492Y153179D01*
X264396Y153193D01*
X264301Y153210D01*
X264207Y153232D01*
X264114Y153257D01*
X264021Y153285D01*
X263930Y153318D01*
X263841Y153354D01*
X263753Y153394D01*
X263666Y153437D01*
X263582Y153483D01*
X263499Y153533D01*
X263418Y153587D01*
X263340Y153643D01*
X263264Y153703D01*
X263190Y153765D01*
X263119Y153831D01*
X263051Y153899D01*
X262985Y153970D01*
X262923Y154044D01*
X262863Y154120D01*
X262807Y154198D01*
X262753Y154279D01*
X262703Y154362D01*
X262657Y154446D01*
X262614Y154533D01*
X262574Y154621D01*
X262538Y154710D01*
X262505Y154801D01*
X262477Y154894D01*
X262452Y154987D01*
X262430Y155081D01*
X262413Y155176D01*
X262399Y155272D01*
X262390Y155368D01*
X262384Y155464D01*
X262382Y155561D01*
X262384Y155658D01*
X262390Y155754D01*
X262399Y155850D01*
X262413Y155946D01*
X262430Y156041D01*
X262452Y156135D01*
X262477Y156228D01*
X262505Y156321D01*
X262538Y156412D01*
X262574Y156501D01*
X262614Y156589D01*
X262657Y156676D01*
X262703Y156761D01*
X262753Y156843D01*
X262807Y156924D01*
X262863Y157002D01*
X262923Y157078D01*
X262985Y157152D01*
X263051Y157223D01*
X263119Y157291D01*
X263190Y157357D01*
X263264Y157419D01*
X263340Y157479D01*
X263418Y157535D01*
X263499Y157589D01*
X263582Y157639D01*
X263666Y157685D01*
X263753Y157728D01*
X263841Y157768D01*
X263930Y157804D01*
X264021Y157837D01*
X264114Y157865D01*
X264207Y157890D01*
X264301Y157912D01*
X264396Y157929D01*
X264492Y157943D01*
X264588Y157952D01*
X264684Y157958D01*
X264781Y157960D01*
X267180Y157960D01*
X267303Y157958D01*
X267426Y157952D01*
X267549Y157942D01*
X267671Y157928D01*
X267793Y157911D01*
X267914Y157889D01*
X268034Y157864D01*
X268154Y157834D01*
X268272Y157801D01*
X268389Y157764D01*
X268506Y157724D01*
X268620Y157680D01*
X268734Y157632D01*
X268845Y157580D01*
X268955Y157525D01*
X269063Y157466D01*
X269170Y157404D01*
X269274Y157339D01*
X269376Y157270D01*
X269476Y157198D01*
X269573Y157123D01*
X269668Y157044D01*
X269760Y156963D01*
X269850Y156879D01*
X269937Y156792D01*
X270021Y156702D01*
X270102Y156610D01*
X270181Y156515D01*
X270256Y156418D01*
X270328Y156318D01*
X270397Y156216D01*
X270462Y156112D01*
X270524Y156005D01*
X270583Y155897D01*
X270638Y155787D01*
X270690Y155676D01*
X270738Y155562D01*
X270782Y155448D01*
X270822Y155331D01*
X270859Y155214D01*
X270892Y155096D01*
X270922Y154976D01*
X270947Y154856D01*
X270969Y154735D01*
X270986Y154613D01*
X271000Y154491D01*
X271010Y154368D01*
X271016Y154245D01*
X271018Y154122D01*
X243219Y153162D02*
X243122Y153164D01*
X243026Y153170D01*
X242930Y153179D01*
X242834Y153193D01*
X242739Y153210D01*
X242645Y153232D01*
X242552Y153257D01*
X242459Y153285D01*
X242368Y153318D01*
X242279Y153354D01*
X242191Y153394D01*
X242104Y153437D01*
X242019Y153483D01*
X241937Y153533D01*
X241856Y153587D01*
X241778Y153643D01*
X241702Y153703D01*
X241628Y153765D01*
X241557Y153831D01*
X241489Y153899D01*
X241423Y153970D01*
X241361Y154044D01*
X241301Y154120D01*
X241245Y154198D01*
X241191Y154279D01*
X241141Y154362D01*
X241095Y154446D01*
X241052Y154533D01*
X241012Y154621D01*
X240976Y154710D01*
X240943Y154801D01*
X240915Y154894D01*
X240890Y154987D01*
X240868Y155081D01*
X240851Y155176D01*
X240837Y155272D01*
X240828Y155368D01*
X240822Y155464D01*
X240820Y155561D01*
X240822Y155658D01*
X240828Y155754D01*
X240837Y155850D01*
X240851Y155946D01*
X240868Y156041D01*
X240890Y156135D01*
X240915Y156228D01*
X240943Y156321D01*
X240976Y156412D01*
X241012Y156501D01*
X241052Y156589D01*
X241095Y156676D01*
X241141Y156761D01*
X241191Y156843D01*
X241245Y156924D01*
X241301Y157002D01*
X241361Y157078D01*
X241423Y157152D01*
X241489Y157223D01*
X241557Y157291D01*
X241628Y157357D01*
X241702Y157419D01*
X241778Y157479D01*
X241856Y157535D01*
X241937Y157589D01*
X242020Y157639D01*
X242104Y157685D01*
X242191Y157728D01*
X242279Y157768D01*
X242368Y157804D01*
X242459Y157837D01*
X242552Y157865D01*
X242645Y157890D01*
X242739Y157912D01*
X242834Y157929D01*
X242930Y157943D01*
X243026Y157952D01*
X243122Y157958D01*
X243219Y157960D01*
X243316Y157958D01*
X243412Y157952D01*
X243508Y157943D01*
X243604Y157929D01*
X243699Y157912D01*
X243793Y157890D01*
X243886Y157865D01*
X243979Y157837D01*
X244070Y157804D01*
X244159Y157768D01*
X244247Y157728D01*
X244334Y157685D01*
X244419Y157639D01*
X244501Y157589D01*
X244582Y157535D01*
X244660Y157479D01*
X244736Y157419D01*
X244810Y157357D01*
X244881Y157291D01*
X244949Y157223D01*
X245015Y157152D01*
X245077Y157078D01*
X245137Y157002D01*
X245193Y156924D01*
X245247Y156843D01*
X245297Y156760D01*
X245343Y156676D01*
X245386Y156589D01*
X245426Y156501D01*
X245462Y156412D01*
X245495Y156321D01*
X245523Y156228D01*
X245548Y156135D01*
X245570Y156041D01*
X245587Y155946D01*
X245601Y155850D01*
X245610Y155754D01*
X245616Y155658D01*
X245618Y155561D01*
X245616Y155464D01*
X245610Y155368D01*
X245601Y155272D01*
X245587Y155176D01*
X245570Y155081D01*
X245548Y154987D01*
X245523Y154894D01*
X245495Y154801D01*
X245462Y154710D01*
X245426Y154621D01*
X245386Y154533D01*
X245343Y154446D01*
X245297Y154362D01*
X245247Y154279D01*
X245193Y154198D01*
X245137Y154120D01*
X245077Y154044D01*
X245015Y153970D01*
X244949Y153899D01*
X244881Y153831D01*
X244810Y153765D01*
X244736Y153703D01*
X244660Y153643D01*
X244582Y153587D01*
X244501Y153533D01*
X244419Y153483D01*
X244334Y153437D01*
X244247Y153394D01*
X244159Y153354D01*
X244070Y153318D01*
X243979Y153285D01*
X243886Y153257D01*
X243793Y153232D01*
X243699Y153210D01*
X243604Y153193D01*
X243508Y153179D01*
X243412Y153170D01*
X243316Y153164D01*
X243219Y153162D01*
X238901Y153642D02*
X238815Y153644D01*
X238729Y153650D01*
X238643Y153659D01*
X238558Y153673D01*
X238474Y153690D01*
X238390Y153711D01*
X238308Y153736D01*
X238227Y153764D01*
X238147Y153796D01*
X238068Y153832D01*
X237992Y153871D01*
X237917Y153914D01*
X237844Y153959D01*
X237773Y154008D01*
X237705Y154061D01*
X237638Y154116D01*
X237575Y154174D01*
X237514Y154235D01*
X237456Y154298D01*
X237401Y154365D01*
X237348Y154433D01*
X237299Y154504D01*
X237254Y154577D01*
X237211Y154652D01*
X237172Y154728D01*
X237136Y154807D01*
X237104Y154887D01*
X237076Y154968D01*
X237051Y155050D01*
X237030Y155134D01*
X237013Y155218D01*
X236999Y155303D01*
X236990Y155389D01*
X236984Y155475D01*
X236982Y155561D01*
X236984Y155647D01*
X236990Y155733D01*
X236999Y155819D01*
X237013Y155904D01*
X237030Y155988D01*
X237051Y156072D01*
X237076Y156154D01*
X237104Y156235D01*
X237136Y156315D01*
X237172Y156394D01*
X237211Y156470D01*
X237254Y156545D01*
X237299Y156618D01*
X237348Y156689D01*
X237401Y156757D01*
X237456Y156824D01*
X237514Y156887D01*
X237575Y156948D01*
X237638Y157006D01*
X237705Y157061D01*
X237773Y157114D01*
X237844Y157163D01*
X237917Y157208D01*
X237992Y157251D01*
X238068Y157290D01*
X238147Y157326D01*
X238227Y157358D01*
X238308Y157386D01*
X238390Y157411D01*
X238474Y157432D01*
X238558Y157449D01*
X238643Y157463D01*
X238729Y157472D01*
X238815Y157478D01*
X238901Y157480D01*
X238987Y157478D01*
X239073Y157472D01*
X239159Y157463D01*
X239244Y157449D01*
X239328Y157432D01*
X239412Y157411D01*
X239494Y157386D01*
X239575Y157358D01*
X239655Y157326D01*
X239734Y157290D01*
X239810Y157251D01*
X239885Y157208D01*
X239958Y157163D01*
X240029Y157114D01*
X240097Y157061D01*
X240164Y157006D01*
X240227Y156948D01*
X240288Y156887D01*
X240346Y156824D01*
X240401Y156757D01*
X240454Y156689D01*
X240503Y156618D01*
X240548Y156545D01*
X240591Y156470D01*
X240630Y156394D01*
X240666Y156315D01*
X240698Y156235D01*
X240726Y156154D01*
X240751Y156072D01*
X240772Y155988D01*
X240789Y155904D01*
X240803Y155819D01*
X240812Y155733D01*
X240818Y155647D01*
X240820Y155561D01*
X240818Y155475D01*
X240812Y155389D01*
X240803Y155303D01*
X240789Y155218D01*
X240772Y155134D01*
X240751Y155050D01*
X240726Y154968D01*
X240698Y154887D01*
X240666Y154807D01*
X240630Y154728D01*
X240591Y154652D01*
X240548Y154577D01*
X240503Y154504D01*
X240454Y154433D01*
X240401Y154365D01*
X240346Y154298D01*
X240288Y154235D01*
X240227Y154174D01*
X240164Y154116D01*
X240097Y154061D01*
X240029Y154008D01*
X239958Y153959D01*
X239885Y153914D01*
X239810Y153871D01*
X239734Y153832D01*
X239655Y153796D01*
X239575Y153764D01*
X239494Y153736D01*
X239412Y153711D01*
X239328Y153690D01*
X239244Y153673D01*
X239159Y153659D01*
X239073Y153650D01*
X238987Y153644D01*
X238901Y153642D01*
X199842Y153162D02*
X198882Y153162D01*
X198882Y157960D01*
X207518Y155561D01*
X177320Y156041D02*
X177320Y153162D01*
X177320Y156041D02*
X177322Y156127D01*
X177328Y156213D01*
X177337Y156299D01*
X177351Y156384D01*
X177368Y156468D01*
X177389Y156552D01*
X177414Y156634D01*
X177442Y156715D01*
X177474Y156795D01*
X177510Y156874D01*
X177549Y156950D01*
X177592Y157025D01*
X177637Y157098D01*
X177687Y157169D01*
X177739Y157237D01*
X177794Y157304D01*
X177852Y157367D01*
X177913Y157428D01*
X177976Y157486D01*
X178043Y157541D01*
X178111Y157594D01*
X178182Y157643D01*
X178255Y157688D01*
X178330Y157731D01*
X178406Y157770D01*
X178485Y157806D01*
X178565Y157838D01*
X178646Y157866D01*
X178729Y157891D01*
X178812Y157912D01*
X178896Y157929D01*
X178981Y157943D01*
X179067Y157952D01*
X179153Y157958D01*
X179239Y157960D01*
X179719Y157960D01*
X179816Y157958D01*
X179912Y157952D01*
X180008Y157943D01*
X180104Y157929D01*
X180199Y157912D01*
X180293Y157890D01*
X180386Y157865D01*
X180479Y157837D01*
X180570Y157804D01*
X180659Y157768D01*
X180747Y157728D01*
X180834Y157685D01*
X180919Y157639D01*
X181001Y157589D01*
X181082Y157535D01*
X181160Y157479D01*
X181236Y157419D01*
X181310Y157357D01*
X181381Y157291D01*
X181449Y157223D01*
X181515Y157152D01*
X181577Y157078D01*
X181637Y157002D01*
X181693Y156924D01*
X181747Y156843D01*
X181797Y156760D01*
X181843Y156676D01*
X181886Y156589D01*
X181926Y156501D01*
X181962Y156412D01*
X181995Y156321D01*
X182023Y156228D01*
X182048Y156135D01*
X182070Y156041D01*
X182087Y155946D01*
X182101Y155850D01*
X182110Y155754D01*
X182116Y155658D01*
X182118Y155561D01*
X182116Y155464D01*
X182110Y155368D01*
X182101Y155272D01*
X182087Y155176D01*
X182070Y155081D01*
X182048Y154987D01*
X182023Y154894D01*
X181995Y154801D01*
X181962Y154710D01*
X181926Y154621D01*
X181886Y154533D01*
X181843Y154446D01*
X181797Y154362D01*
X181747Y154279D01*
X181693Y154198D01*
X181637Y154120D01*
X181577Y154044D01*
X181515Y153970D01*
X181449Y153899D01*
X181381Y153831D01*
X181310Y153765D01*
X181236Y153703D01*
X181160Y153643D01*
X181082Y153587D01*
X181001Y153533D01*
X180919Y153483D01*
X180834Y153437D01*
X180747Y153394D01*
X180659Y153354D01*
X180570Y153318D01*
X180479Y153285D01*
X180386Y153257D01*
X180293Y153232D01*
X180199Y153210D01*
X180104Y153193D01*
X180008Y153179D01*
X179912Y153170D01*
X179816Y153164D01*
X179719Y153162D01*
X177320Y153162D01*
X177197Y153164D01*
X177074Y153170D01*
X176951Y153180D01*
X176829Y153194D01*
X176707Y153211D01*
X176586Y153233D01*
X176466Y153258D01*
X176346Y153288D01*
X176228Y153321D01*
X176111Y153358D01*
X175994Y153398D01*
X175880Y153442D01*
X175766Y153490D01*
X175655Y153542D01*
X175545Y153597D01*
X175437Y153656D01*
X175330Y153718D01*
X175226Y153783D01*
X175124Y153852D01*
X175024Y153924D01*
X174927Y153999D01*
X174832Y154078D01*
X174740Y154159D01*
X174650Y154243D01*
X174563Y154330D01*
X174479Y154420D01*
X174398Y154512D01*
X174319Y154607D01*
X174244Y154704D01*
X174172Y154804D01*
X174103Y154906D01*
X174038Y155010D01*
X173976Y155117D01*
X173917Y155225D01*
X173862Y155335D01*
X173810Y155446D01*
X173763Y155560D01*
X173718Y155674D01*
X173678Y155791D01*
X173641Y155908D01*
X173608Y156026D01*
X173578Y156146D01*
X173553Y156266D01*
X173531Y156387D01*
X173514Y156509D01*
X173500Y156631D01*
X173490Y156754D01*
X173484Y156877D01*
X173482Y157000D01*
X156718Y156041D02*
X156718Y153162D01*
X156718Y156041D02*
X156716Y156127D01*
X156710Y156213D01*
X156701Y156299D01*
X156687Y156384D01*
X156670Y156468D01*
X156649Y156552D01*
X156624Y156634D01*
X156596Y156715D01*
X156564Y156795D01*
X156528Y156874D01*
X156489Y156950D01*
X156446Y157025D01*
X156401Y157098D01*
X156352Y157169D01*
X156299Y157237D01*
X156244Y157304D01*
X156186Y157367D01*
X156125Y157428D01*
X156062Y157486D01*
X155995Y157541D01*
X155927Y157594D01*
X155856Y157643D01*
X155783Y157688D01*
X155708Y157731D01*
X155632Y157770D01*
X155553Y157806D01*
X155473Y157838D01*
X155392Y157866D01*
X155310Y157891D01*
X155226Y157912D01*
X155142Y157929D01*
X155057Y157943D01*
X154971Y157952D01*
X154885Y157958D01*
X154799Y157960D01*
X153839Y157960D01*
X153753Y157958D01*
X153667Y157952D01*
X153581Y157943D01*
X153496Y157929D01*
X153412Y157912D01*
X153328Y157891D01*
X153246Y157866D01*
X153165Y157838D01*
X153085Y157806D01*
X153006Y157770D01*
X152930Y157731D01*
X152855Y157688D01*
X152782Y157643D01*
X152711Y157594D01*
X152643Y157541D01*
X152576Y157486D01*
X152513Y157428D01*
X152452Y157367D01*
X152394Y157304D01*
X152339Y157237D01*
X152287Y157169D01*
X152237Y157098D01*
X152192Y157025D01*
X152149Y156950D01*
X152110Y156874D01*
X152074Y156795D01*
X152042Y156715D01*
X152014Y156634D01*
X151989Y156552D01*
X151968Y156468D01*
X151951Y156384D01*
X151937Y156299D01*
X151928Y156213D01*
X151922Y156127D01*
X151920Y156041D01*
X151920Y153162D01*
X148082Y153162D01*
X148082Y157960D01*
X129399Y153162D02*
X122682Y155081D01*
X129399Y153162D02*
X129399Y157960D01*
X127480Y156520D02*
X131318Y156520D01*
X105918Y155561D02*
X105918Y153162D01*
X105918Y155561D02*
X105916Y155658D01*
X105910Y155754D01*
X105901Y155850D01*
X105887Y155946D01*
X105870Y156041D01*
X105848Y156135D01*
X105823Y156228D01*
X105795Y156321D01*
X105762Y156412D01*
X105726Y156501D01*
X105686Y156589D01*
X105643Y156676D01*
X105597Y156761D01*
X105547Y156843D01*
X105493Y156924D01*
X105437Y157002D01*
X105377Y157078D01*
X105315Y157152D01*
X105249Y157223D01*
X105181Y157291D01*
X105110Y157357D01*
X105036Y157419D01*
X104960Y157479D01*
X104882Y157535D01*
X104801Y157589D01*
X104719Y157639D01*
X104634Y157685D01*
X104547Y157728D01*
X104459Y157768D01*
X104370Y157804D01*
X104279Y157837D01*
X104186Y157865D01*
X104093Y157890D01*
X103999Y157912D01*
X103904Y157929D01*
X103808Y157943D01*
X103712Y157952D01*
X103616Y157958D01*
X103519Y157960D01*
X103422Y157958D01*
X103326Y157952D01*
X103230Y157943D01*
X103134Y157929D01*
X103039Y157912D01*
X102945Y157890D01*
X102852Y157865D01*
X102759Y157837D01*
X102668Y157804D01*
X102579Y157768D01*
X102491Y157728D01*
X102404Y157685D01*
X102320Y157639D01*
X102237Y157589D01*
X102156Y157535D01*
X102078Y157479D01*
X102002Y157419D01*
X101928Y157357D01*
X101857Y157291D01*
X101789Y157223D01*
X101723Y157152D01*
X101661Y157078D01*
X101601Y157002D01*
X101545Y156924D01*
X101491Y156843D01*
X101441Y156761D01*
X101395Y156676D01*
X101352Y156589D01*
X101312Y156501D01*
X101276Y156412D01*
X101243Y156321D01*
X101215Y156228D01*
X101190Y156135D01*
X101168Y156041D01*
X101151Y155946D01*
X101137Y155850D01*
X101128Y155754D01*
X101122Y155658D01*
X101120Y155561D01*
X97282Y156041D02*
X97282Y153162D01*
X97282Y156041D02*
X97284Y156127D01*
X97290Y156213D01*
X97299Y156299D01*
X97313Y156384D01*
X97330Y156468D01*
X97351Y156552D01*
X97376Y156634D01*
X97404Y156715D01*
X97436Y156795D01*
X97472Y156874D01*
X97511Y156950D01*
X97554Y157025D01*
X97599Y157098D01*
X97648Y157169D01*
X97701Y157237D01*
X97756Y157304D01*
X97814Y157367D01*
X97875Y157428D01*
X97938Y157486D01*
X98005Y157541D01*
X98073Y157594D01*
X98144Y157643D01*
X98217Y157688D01*
X98292Y157731D01*
X98368Y157770D01*
X98447Y157806D01*
X98527Y157838D01*
X98608Y157866D01*
X98690Y157891D01*
X98774Y157912D01*
X98858Y157929D01*
X98943Y157943D01*
X99029Y157952D01*
X99115Y157958D01*
X99201Y157960D01*
X99287Y157958D01*
X99373Y157952D01*
X99459Y157943D01*
X99544Y157929D01*
X99628Y157912D01*
X99712Y157891D01*
X99794Y157866D01*
X99875Y157838D01*
X99955Y157806D01*
X100034Y157770D01*
X100110Y157731D01*
X100185Y157688D01*
X100258Y157643D01*
X100329Y157594D01*
X100397Y157541D01*
X100464Y157486D01*
X100527Y157428D01*
X100588Y157367D01*
X100646Y157304D01*
X100701Y157237D01*
X100754Y157169D01*
X100803Y157098D01*
X100848Y157025D01*
X100891Y156950D01*
X100930Y156874D01*
X100966Y156795D01*
X100998Y156715D01*
X101026Y156634D01*
X101051Y156552D01*
X101072Y156468D01*
X101089Y156384D01*
X101103Y156299D01*
X101112Y156213D01*
X101118Y156127D01*
X101120Y156041D01*
X101120Y154122D01*
X74041Y157960D02*
X73949Y157958D01*
X73858Y157952D01*
X73767Y157943D01*
X73676Y157929D01*
X73586Y157912D01*
X73497Y157890D01*
X73409Y157865D01*
X73322Y157837D01*
X73236Y157804D01*
X73152Y157768D01*
X73069Y157729D01*
X72988Y157686D01*
X72909Y157639D01*
X72832Y157590D01*
X72757Y157537D01*
X72685Y157481D01*
X72615Y157422D01*
X72547Y157360D01*
X72482Y157295D01*
X72420Y157227D01*
X72361Y157157D01*
X72305Y157085D01*
X72252Y157010D01*
X72203Y156933D01*
X72156Y156854D01*
X72113Y156773D01*
X72074Y156690D01*
X72038Y156606D01*
X72005Y156520D01*
X71977Y156433D01*
X71952Y156345D01*
X71930Y156256D01*
X71913Y156166D01*
X71899Y156075D01*
X71890Y155984D01*
X71884Y155893D01*
X71882Y155801D01*
X71884Y155698D01*
X71890Y155596D01*
X71899Y155494D01*
X71912Y155392D01*
X71929Y155291D01*
X71950Y155190D01*
X71974Y155091D01*
X72003Y154992D01*
X72034Y154895D01*
X72070Y154798D01*
X72108Y154703D01*
X72151Y154610D01*
X72197Y154518D01*
X72246Y154428D01*
X72298Y154340D01*
X72354Y154253D01*
X72413Y154169D01*
X72474Y154088D01*
X72539Y154008D01*
X72607Y153931D01*
X72678Y153856D01*
X72751Y153785D01*
X72827Y153716D01*
X72905Y153649D01*
X72986Y153586D01*
X73069Y153526D01*
X73154Y153469D01*
X73241Y153415D01*
X73331Y153364D01*
X73422Y153317D01*
X73514Y153273D01*
X73609Y153232D01*
X73704Y153195D01*
X73801Y153162D01*
X75720Y157240D02*
X75654Y157307D01*
X75585Y157371D01*
X75514Y157432D01*
X75440Y157490D01*
X75364Y157545D01*
X75286Y157597D01*
X75206Y157646D01*
X75124Y157692D01*
X75040Y157734D01*
X74954Y157773D01*
X74867Y157808D01*
X74779Y157839D01*
X74689Y157867D01*
X74599Y157892D01*
X74507Y157913D01*
X74415Y157930D01*
X74322Y157943D01*
X74229Y157952D01*
X74135Y157958D01*
X74041Y157960D01*
X75720Y157240D02*
X80518Y153162D01*
X80518Y157960D01*
X55118Y155561D02*
X46482Y155561D01*
X46482Y153162D02*
X46482Y157960D01*
X46482Y166974D02*
X55118Y161217D01*
X55118Y166974D02*
X46482Y161217D01*
X29718Y153162D02*
X21082Y153162D01*
X21082Y155561D01*
X21084Y155658D01*
X21090Y155754D01*
X21099Y155850D01*
X21113Y155946D01*
X21130Y156041D01*
X21152Y156135D01*
X21177Y156228D01*
X21205Y156321D01*
X21238Y156412D01*
X21274Y156501D01*
X21314Y156589D01*
X21357Y156676D01*
X21403Y156761D01*
X21453Y156843D01*
X21507Y156924D01*
X21563Y157002D01*
X21623Y157078D01*
X21685Y157152D01*
X21751Y157223D01*
X21819Y157291D01*
X21890Y157357D01*
X21964Y157419D01*
X22040Y157479D01*
X22118Y157535D01*
X22199Y157589D01*
X22282Y157639D01*
X22366Y157685D01*
X22453Y157728D01*
X22541Y157768D01*
X22630Y157804D01*
X22721Y157837D01*
X22814Y157865D01*
X22907Y157890D01*
X23001Y157912D01*
X23096Y157929D01*
X23192Y157943D01*
X23288Y157952D01*
X23384Y157958D01*
X23481Y157960D01*
X23578Y157958D01*
X23674Y157952D01*
X23770Y157943D01*
X23866Y157929D01*
X23961Y157912D01*
X24055Y157890D01*
X24148Y157865D01*
X24241Y157837D01*
X24332Y157804D01*
X24421Y157768D01*
X24509Y157728D01*
X24596Y157685D01*
X24681Y157639D01*
X24763Y157589D01*
X24844Y157535D01*
X24922Y157479D01*
X24998Y157419D01*
X25072Y157357D01*
X25143Y157291D01*
X25211Y157223D01*
X25277Y157152D01*
X25339Y157078D01*
X25399Y157002D01*
X25455Y156924D01*
X25509Y156843D01*
X25559Y156761D01*
X25605Y156676D01*
X25648Y156589D01*
X25688Y156501D01*
X25724Y156412D01*
X25757Y156321D01*
X25785Y156228D01*
X25810Y156135D01*
X25832Y156041D01*
X25849Y155946D01*
X25863Y155850D01*
X25872Y155754D01*
X25878Y155658D01*
X25880Y155561D01*
X25880Y153162D01*
X25880Y156041D02*
X29718Y157960D01*
X29718Y161742D02*
X21082Y167499D01*
X21082Y161742D02*
X29718Y167499D01*
X446899Y157960D02*
X446985Y157958D01*
X447071Y157952D01*
X447157Y157943D01*
X447242Y157929D01*
X447326Y157912D01*
X447410Y157891D01*
X447492Y157866D01*
X447573Y157838D01*
X447653Y157806D01*
X447732Y157770D01*
X447808Y157731D01*
X447883Y157688D01*
X447956Y157643D01*
X448027Y157594D01*
X448095Y157541D01*
X448162Y157486D01*
X448225Y157428D01*
X448286Y157367D01*
X448344Y157304D01*
X448399Y157237D01*
X448452Y157169D01*
X448501Y157098D01*
X448546Y157025D01*
X448589Y156950D01*
X448628Y156874D01*
X448664Y156795D01*
X448696Y156715D01*
X448724Y156634D01*
X448749Y156552D01*
X448770Y156468D01*
X448787Y156384D01*
X448801Y156299D01*
X448810Y156213D01*
X448816Y156127D01*
X448818Y156041D01*
X448816Y155918D01*
X448811Y155795D01*
X448801Y155672D01*
X448788Y155550D01*
X448771Y155428D01*
X448751Y155306D01*
X448727Y155186D01*
X448699Y155066D01*
X448668Y154947D01*
X448632Y154829D01*
X448594Y154712D01*
X448552Y154596D01*
X448506Y154482D01*
X448457Y154369D01*
X448405Y154258D01*
X448349Y154148D01*
X448290Y154040D01*
X448227Y153934D01*
X448162Y153830D01*
X448093Y153727D01*
X448021Y153627D01*
X447946Y153530D01*
X447869Y153434D01*
X447788Y153341D01*
X447705Y153250D01*
X447619Y153162D01*
X442101Y153402D02*
X442015Y153404D01*
X441929Y153410D01*
X441843Y153419D01*
X441758Y153433D01*
X441674Y153450D01*
X441590Y153471D01*
X441508Y153496D01*
X441427Y153524D01*
X441347Y153556D01*
X441268Y153592D01*
X441192Y153631D01*
X441117Y153674D01*
X441044Y153719D01*
X440973Y153768D01*
X440905Y153821D01*
X440838Y153876D01*
X440775Y153934D01*
X440714Y153995D01*
X440656Y154058D01*
X440601Y154125D01*
X440548Y154193D01*
X440499Y154264D01*
X440454Y154337D01*
X440411Y154412D01*
X440372Y154488D01*
X440336Y154567D01*
X440304Y154647D01*
X440276Y154728D01*
X440251Y154810D01*
X440230Y154894D01*
X440213Y154978D01*
X440199Y155063D01*
X440190Y155149D01*
X440184Y155235D01*
X440182Y155321D01*
X440184Y155437D01*
X440189Y155552D01*
X440199Y155668D01*
X440212Y155783D01*
X440228Y155897D01*
X440249Y156011D01*
X440273Y156125D01*
X440301Y156237D01*
X440332Y156348D01*
X440367Y156459D01*
X440405Y156568D01*
X440447Y156676D01*
X440492Y156782D01*
X440541Y156888D01*
X440593Y156991D01*
X440648Y157093D01*
X440707Y157192D01*
X440769Y157290D01*
X440834Y157386D01*
X440902Y157480D01*
X443780Y154362D02*
X443734Y154287D01*
X443684Y154214D01*
X443631Y154144D01*
X443575Y154076D01*
X443516Y154011D01*
X443454Y153948D01*
X443390Y153889D01*
X443322Y153832D01*
X443252Y153778D01*
X443180Y153728D01*
X443106Y153681D01*
X443030Y153637D01*
X442951Y153597D01*
X442871Y153561D01*
X442790Y153528D01*
X442707Y153499D01*
X442622Y153473D01*
X442537Y153451D01*
X442451Y153434D01*
X442364Y153420D01*
X442277Y153410D01*
X442189Y153404D01*
X442101Y153402D01*
X445220Y157001D02*
X445266Y157075D01*
X445316Y157148D01*
X445369Y157218D01*
X445425Y157286D01*
X445484Y157351D01*
X445546Y157414D01*
X445611Y157473D01*
X445678Y157530D01*
X445748Y157584D01*
X445820Y157634D01*
X445894Y157681D01*
X445970Y157725D01*
X446049Y157765D01*
X446129Y157801D01*
X446210Y157834D01*
X446293Y157864D01*
X446378Y157889D01*
X446463Y157911D01*
X446549Y157928D01*
X446636Y157942D01*
X446723Y157952D01*
X446811Y157958D01*
X446899Y157960D01*
X445220Y157000D02*
X443780Y154361D01*
X440182Y162306D02*
X448818Y162306D01*
X440182Y162306D02*
X440182Y164705D01*
X440184Y164802D01*
X440190Y164898D01*
X440199Y164994D01*
X440213Y165090D01*
X440230Y165185D01*
X440252Y165279D01*
X440277Y165372D01*
X440305Y165465D01*
X440338Y165556D01*
X440374Y165645D01*
X440414Y165733D01*
X440457Y165820D01*
X440503Y165905D01*
X440553Y165987D01*
X440607Y166068D01*
X440663Y166146D01*
X440723Y166222D01*
X440785Y166296D01*
X440851Y166367D01*
X440919Y166435D01*
X440990Y166501D01*
X441064Y166563D01*
X441140Y166623D01*
X441218Y166679D01*
X441299Y166733D01*
X441382Y166783D01*
X441466Y166829D01*
X441553Y166872D01*
X441641Y166912D01*
X441730Y166948D01*
X441821Y166981D01*
X441914Y167009D01*
X442007Y167034D01*
X442101Y167056D01*
X442196Y167073D01*
X442292Y167087D01*
X442388Y167096D01*
X442484Y167102D01*
X442581Y167104D01*
X446419Y167104D01*
X446516Y167102D01*
X446612Y167096D01*
X446708Y167087D01*
X446804Y167073D01*
X446899Y167056D01*
X446993Y167034D01*
X447086Y167009D01*
X447179Y166981D01*
X447270Y166948D01*
X447359Y166912D01*
X447447Y166872D01*
X447534Y166829D01*
X447619Y166783D01*
X447701Y166733D01*
X447782Y166679D01*
X447860Y166623D01*
X447936Y166563D01*
X448010Y166501D01*
X448081Y166435D01*
X448149Y166367D01*
X448215Y166296D01*
X448277Y166222D01*
X448337Y166146D01*
X448393Y166068D01*
X448447Y165987D01*
X448497Y165905D01*
X448543Y165820D01*
X448586Y165733D01*
X448626Y165645D01*
X448662Y165556D01*
X448695Y165465D01*
X448723Y165372D01*
X448748Y165279D01*
X448770Y165185D01*
X448787Y165090D01*
X448801Y164994D01*
X448810Y164898D01*
X448816Y164802D01*
X448818Y164705D01*
X448818Y162306D01*
X448818Y171275D02*
X440182Y174154D01*
X448818Y177032D01*
X446659Y176313D02*
X446659Y171995D01*
X472299Y157960D02*
X472385Y157958D01*
X472471Y157952D01*
X472557Y157943D01*
X472642Y157929D01*
X472726Y157912D01*
X472810Y157891D01*
X472892Y157866D01*
X472973Y157838D01*
X473053Y157806D01*
X473132Y157770D01*
X473208Y157731D01*
X473283Y157688D01*
X473356Y157643D01*
X473427Y157594D01*
X473495Y157541D01*
X473562Y157486D01*
X473625Y157428D01*
X473686Y157367D01*
X473744Y157304D01*
X473799Y157237D01*
X473852Y157169D01*
X473901Y157098D01*
X473946Y157025D01*
X473989Y156950D01*
X474028Y156874D01*
X474064Y156795D01*
X474096Y156715D01*
X474124Y156634D01*
X474149Y156552D01*
X474170Y156468D01*
X474187Y156384D01*
X474201Y156299D01*
X474210Y156213D01*
X474216Y156127D01*
X474218Y156041D01*
X474216Y155918D01*
X474211Y155795D01*
X474201Y155672D01*
X474188Y155550D01*
X474171Y155428D01*
X474151Y155306D01*
X474127Y155186D01*
X474099Y155066D01*
X474068Y154947D01*
X474032Y154829D01*
X473994Y154712D01*
X473952Y154596D01*
X473906Y154482D01*
X473857Y154369D01*
X473805Y154258D01*
X473749Y154148D01*
X473690Y154040D01*
X473627Y153934D01*
X473562Y153830D01*
X473493Y153727D01*
X473421Y153627D01*
X473346Y153530D01*
X473269Y153434D01*
X473188Y153341D01*
X473105Y153250D01*
X473019Y153162D01*
X467501Y153402D02*
X467415Y153404D01*
X467329Y153410D01*
X467243Y153419D01*
X467158Y153433D01*
X467074Y153450D01*
X466990Y153471D01*
X466908Y153496D01*
X466827Y153524D01*
X466747Y153556D01*
X466668Y153592D01*
X466592Y153631D01*
X466517Y153674D01*
X466444Y153719D01*
X466373Y153768D01*
X466305Y153821D01*
X466238Y153876D01*
X466175Y153934D01*
X466114Y153995D01*
X466056Y154058D01*
X466001Y154125D01*
X465948Y154193D01*
X465899Y154264D01*
X465854Y154337D01*
X465811Y154412D01*
X465772Y154488D01*
X465736Y154567D01*
X465704Y154647D01*
X465676Y154728D01*
X465651Y154810D01*
X465630Y154894D01*
X465613Y154978D01*
X465599Y155063D01*
X465590Y155149D01*
X465584Y155235D01*
X465582Y155321D01*
X465584Y155437D01*
X465589Y155552D01*
X465599Y155668D01*
X465612Y155783D01*
X465628Y155897D01*
X465649Y156011D01*
X465673Y156125D01*
X465701Y156237D01*
X465732Y156348D01*
X465767Y156459D01*
X465805Y156568D01*
X465847Y156676D01*
X465892Y156782D01*
X465941Y156888D01*
X465993Y156991D01*
X466048Y157093D01*
X466107Y157192D01*
X466169Y157290D01*
X466234Y157386D01*
X466302Y157480D01*
X469180Y154362D02*
X469134Y154287D01*
X469084Y154214D01*
X469031Y154144D01*
X468975Y154076D01*
X468916Y154011D01*
X468854Y153948D01*
X468790Y153889D01*
X468722Y153832D01*
X468652Y153778D01*
X468580Y153728D01*
X468506Y153681D01*
X468430Y153637D01*
X468351Y153597D01*
X468271Y153561D01*
X468190Y153528D01*
X468107Y153499D01*
X468022Y153473D01*
X467937Y153451D01*
X467851Y153434D01*
X467764Y153420D01*
X467677Y153410D01*
X467589Y153404D01*
X467501Y153402D01*
X470620Y157001D02*
X470666Y157075D01*
X470716Y157148D01*
X470769Y157218D01*
X470825Y157286D01*
X470884Y157351D01*
X470946Y157414D01*
X471011Y157473D01*
X471078Y157530D01*
X471148Y157584D01*
X471220Y157634D01*
X471294Y157681D01*
X471370Y157725D01*
X471449Y157765D01*
X471529Y157801D01*
X471610Y157834D01*
X471693Y157864D01*
X471778Y157889D01*
X471863Y157911D01*
X471949Y157928D01*
X472036Y157942D01*
X472123Y157952D01*
X472211Y157958D01*
X472299Y157960D01*
X470620Y157000D02*
X469180Y154361D01*
X474218Y163882D02*
X474218Y165801D01*
X474218Y163882D02*
X474216Y163796D01*
X474210Y163710D01*
X474201Y163624D01*
X474187Y163539D01*
X474170Y163455D01*
X474149Y163371D01*
X474124Y163289D01*
X474096Y163208D01*
X474064Y163128D01*
X474028Y163049D01*
X473989Y162973D01*
X473946Y162898D01*
X473901Y162825D01*
X473852Y162754D01*
X473799Y162686D01*
X473744Y162619D01*
X473686Y162556D01*
X473625Y162495D01*
X473562Y162437D01*
X473495Y162382D01*
X473427Y162330D01*
X473356Y162280D01*
X473283Y162235D01*
X473208Y162192D01*
X473132Y162153D01*
X473053Y162117D01*
X472973Y162085D01*
X472892Y162057D01*
X472810Y162032D01*
X472726Y162011D01*
X472642Y161994D01*
X472557Y161980D01*
X472471Y161971D01*
X472385Y161965D01*
X472299Y161963D01*
X467501Y161963D01*
X467415Y161965D01*
X467329Y161971D01*
X467243Y161980D01*
X467158Y161994D01*
X467074Y162011D01*
X466990Y162032D01*
X466908Y162057D01*
X466827Y162085D01*
X466747Y162117D01*
X466668Y162153D01*
X466592Y162192D01*
X466517Y162235D01*
X466444Y162280D01*
X466373Y162329D01*
X466305Y162382D01*
X466238Y162437D01*
X466175Y162495D01*
X466114Y162556D01*
X466056Y162619D01*
X466001Y162686D01*
X465949Y162754D01*
X465899Y162825D01*
X465854Y162898D01*
X465811Y162973D01*
X465772Y163049D01*
X465736Y163128D01*
X465704Y163208D01*
X465676Y163289D01*
X465651Y163371D01*
X465630Y163455D01*
X465613Y163539D01*
X465599Y163624D01*
X465590Y163710D01*
X465584Y163796D01*
X465582Y163882D01*
X465582Y165801D01*
X465582Y169952D02*
X474218Y169952D01*
X474218Y173790D01*
X359918Y572092D02*
X351282Y572092D01*
X359918Y571133D02*
X359918Y573052D01*
X351282Y573052D02*
X351282Y571133D01*
X353681Y577009D02*
X357519Y577009D01*
X353681Y577008D02*
X353584Y577010D01*
X353488Y577016D01*
X353392Y577025D01*
X353296Y577039D01*
X353201Y577056D01*
X353107Y577078D01*
X353014Y577103D01*
X352921Y577131D01*
X352830Y577164D01*
X352741Y577200D01*
X352653Y577240D01*
X352566Y577283D01*
X352482Y577329D01*
X352399Y577379D01*
X352318Y577433D01*
X352240Y577489D01*
X352164Y577549D01*
X352090Y577611D01*
X352019Y577677D01*
X351951Y577745D01*
X351885Y577816D01*
X351823Y577890D01*
X351763Y577966D01*
X351707Y578044D01*
X351653Y578125D01*
X351603Y578208D01*
X351557Y578292D01*
X351514Y578379D01*
X351474Y578467D01*
X351438Y578556D01*
X351405Y578647D01*
X351377Y578740D01*
X351352Y578833D01*
X351330Y578927D01*
X351313Y579022D01*
X351299Y579118D01*
X351290Y579214D01*
X351284Y579310D01*
X351282Y579407D01*
X351284Y579504D01*
X351290Y579600D01*
X351299Y579696D01*
X351313Y579792D01*
X351330Y579887D01*
X351352Y579981D01*
X351377Y580074D01*
X351405Y580167D01*
X351438Y580258D01*
X351474Y580347D01*
X351514Y580435D01*
X351557Y580522D01*
X351603Y580607D01*
X351653Y580689D01*
X351707Y580770D01*
X351763Y580848D01*
X351823Y580924D01*
X351885Y580998D01*
X351951Y581069D01*
X352019Y581137D01*
X352090Y581203D01*
X352164Y581265D01*
X352240Y581325D01*
X352318Y581381D01*
X352399Y581435D01*
X352482Y581485D01*
X352566Y581531D01*
X352653Y581574D01*
X352741Y581614D01*
X352830Y581650D01*
X352921Y581683D01*
X353014Y581711D01*
X353107Y581736D01*
X353201Y581758D01*
X353296Y581775D01*
X353392Y581789D01*
X353488Y581798D01*
X353584Y581804D01*
X353681Y581806D01*
X357519Y581806D01*
X357616Y581804D01*
X357712Y581798D01*
X357808Y581789D01*
X357904Y581775D01*
X357999Y581758D01*
X358093Y581736D01*
X358186Y581711D01*
X358279Y581683D01*
X358370Y581650D01*
X358459Y581614D01*
X358547Y581574D01*
X358634Y581531D01*
X358719Y581485D01*
X358801Y581435D01*
X358882Y581381D01*
X358960Y581325D01*
X359036Y581265D01*
X359110Y581203D01*
X359181Y581137D01*
X359249Y581069D01*
X359315Y580998D01*
X359377Y580924D01*
X359437Y580848D01*
X359493Y580770D01*
X359547Y580689D01*
X359597Y580607D01*
X359643Y580522D01*
X359686Y580435D01*
X359726Y580347D01*
X359762Y580258D01*
X359795Y580167D01*
X359823Y580074D01*
X359848Y579981D01*
X359870Y579887D01*
X359887Y579792D01*
X359901Y579696D01*
X359910Y579600D01*
X359916Y579504D01*
X359918Y579407D01*
X359916Y579310D01*
X359910Y579214D01*
X359901Y579118D01*
X359887Y579022D01*
X359870Y578927D01*
X359848Y578833D01*
X359823Y578740D01*
X359795Y578647D01*
X359762Y578556D01*
X359726Y578467D01*
X359686Y578379D01*
X359643Y578292D01*
X359597Y578208D01*
X359547Y578125D01*
X359493Y578044D01*
X359437Y577966D01*
X359377Y577890D01*
X359315Y577816D01*
X359249Y577745D01*
X359181Y577677D01*
X359110Y577611D01*
X359036Y577549D01*
X358960Y577489D01*
X358882Y577433D01*
X358801Y577379D01*
X358719Y577329D01*
X358634Y577283D01*
X358547Y577240D01*
X358459Y577200D01*
X358370Y577164D01*
X358279Y577131D01*
X358186Y577103D01*
X358093Y577078D01*
X357999Y577056D01*
X357904Y577039D01*
X357808Y577025D01*
X357712Y577016D01*
X357616Y577010D01*
X357519Y577008D01*
X359918Y586542D02*
X351282Y586542D01*
X351282Y588941D01*
X351284Y589038D01*
X351290Y589134D01*
X351299Y589230D01*
X351313Y589326D01*
X351330Y589421D01*
X351352Y589515D01*
X351377Y589608D01*
X351405Y589701D01*
X351438Y589792D01*
X351474Y589881D01*
X351514Y589969D01*
X351557Y590056D01*
X351603Y590141D01*
X351653Y590223D01*
X351707Y590304D01*
X351763Y590382D01*
X351823Y590458D01*
X351885Y590532D01*
X351951Y590603D01*
X352019Y590671D01*
X352090Y590737D01*
X352164Y590799D01*
X352240Y590859D01*
X352318Y590915D01*
X352399Y590969D01*
X352482Y591019D01*
X352566Y591065D01*
X352653Y591108D01*
X352741Y591148D01*
X352830Y591184D01*
X352921Y591217D01*
X353014Y591245D01*
X353107Y591270D01*
X353201Y591292D01*
X353296Y591309D01*
X353392Y591323D01*
X353488Y591332D01*
X353584Y591338D01*
X353681Y591340D01*
X353778Y591338D01*
X353874Y591332D01*
X353970Y591323D01*
X354066Y591309D01*
X354161Y591292D01*
X354255Y591270D01*
X354348Y591245D01*
X354441Y591217D01*
X354532Y591184D01*
X354621Y591148D01*
X354709Y591108D01*
X354796Y591065D01*
X354881Y591019D01*
X354963Y590969D01*
X355044Y590915D01*
X355122Y590859D01*
X355198Y590799D01*
X355272Y590737D01*
X355343Y590671D01*
X355411Y590603D01*
X355477Y590532D01*
X355539Y590458D01*
X355599Y590382D01*
X355655Y590304D01*
X355709Y590223D01*
X355759Y590141D01*
X355805Y590056D01*
X355848Y589969D01*
X355888Y589881D01*
X355924Y589792D01*
X355957Y589701D01*
X355985Y589608D01*
X356010Y589515D01*
X356032Y589421D01*
X356049Y589326D01*
X356063Y589230D01*
X356072Y589134D01*
X356078Y589038D01*
X356080Y588941D01*
X356080Y586542D01*
X356080Y589421D02*
X359918Y591340D01*
X359918Y595932D02*
X359918Y599770D01*
X359918Y595932D02*
X351282Y595932D01*
X351282Y599770D01*
X355120Y598811D02*
X355120Y595932D01*
X351282Y603857D02*
X359918Y603857D01*
X351282Y603857D02*
X351282Y607695D01*
X355120Y607695D02*
X355120Y603857D01*
D11*
X-31256Y378422D02*
X-31256Y377081D01*
X-31257Y378422D02*
X-31255Y378493D01*
X-31249Y378565D01*
X-31240Y378635D01*
X-31227Y378705D01*
X-31210Y378775D01*
X-31189Y378843D01*
X-31165Y378910D01*
X-31137Y378976D01*
X-31106Y379040D01*
X-31071Y379103D01*
X-31033Y379163D01*
X-30992Y379222D01*
X-30948Y379278D01*
X-30901Y379332D01*
X-30852Y379383D01*
X-30799Y379431D01*
X-30744Y379477D01*
X-30687Y379519D01*
X-30627Y379559D01*
X-30566Y379595D01*
X-30502Y379628D01*
X-30437Y379657D01*
X-30371Y379683D01*
X-30303Y379706D01*
X-30234Y379725D01*
X-30164Y379740D01*
X-30094Y379751D01*
X-30023Y379759D01*
X-29952Y379763D01*
X-29880Y379763D01*
X-29809Y379759D01*
X-29738Y379751D01*
X-29668Y379740D01*
X-29598Y379725D01*
X-29529Y379706D01*
X-29461Y379683D01*
X-29395Y379657D01*
X-29330Y379628D01*
X-29266Y379595D01*
X-29205Y379559D01*
X-29145Y379519D01*
X-29088Y379477D01*
X-29033Y379431D01*
X-28980Y379383D01*
X-28931Y379332D01*
X-28884Y379278D01*
X-28840Y379222D01*
X-28799Y379163D01*
X-28761Y379103D01*
X-28726Y379040D01*
X-28695Y378976D01*
X-28667Y378910D01*
X-28643Y378843D01*
X-28622Y378775D01*
X-28605Y378705D01*
X-28592Y378635D01*
X-28583Y378565D01*
X-28577Y378493D01*
X-28575Y378422D01*
X-28575Y377081D01*
X-33401Y377081D01*
X-33401Y378422D01*
X-33399Y378487D01*
X-33393Y378551D01*
X-33383Y378615D01*
X-33370Y378679D01*
X-33352Y378741D01*
X-33331Y378802D01*
X-33307Y378862D01*
X-33278Y378920D01*
X-33246Y378977D01*
X-33211Y379031D01*
X-33173Y379083D01*
X-33131Y379133D01*
X-33087Y379180D01*
X-33040Y379224D01*
X-32990Y379266D01*
X-32938Y379304D01*
X-32884Y379339D01*
X-32827Y379371D01*
X-32769Y379400D01*
X-32709Y379424D01*
X-32648Y379445D01*
X-32586Y379463D01*
X-32522Y379476D01*
X-32458Y379486D01*
X-32394Y379492D01*
X-32329Y379494D01*
X-32264Y379492D01*
X-32200Y379486D01*
X-32136Y379476D01*
X-32072Y379463D01*
X-32010Y379445D01*
X-31949Y379424D01*
X-31889Y379400D01*
X-31831Y379371D01*
X-31774Y379339D01*
X-31720Y379304D01*
X-31668Y379266D01*
X-31618Y379224D01*
X-31571Y379180D01*
X-31527Y379133D01*
X-31485Y379083D01*
X-31447Y379031D01*
X-31412Y378977D01*
X-31380Y378920D01*
X-31351Y378862D01*
X-31327Y378802D01*
X-31306Y378741D01*
X-31288Y378679D01*
X-31275Y378615D01*
X-31265Y378551D01*
X-31259Y378487D01*
X-31257Y378422D01*
X-32329Y382238D02*
X-33401Y383579D01*
X-28575Y383579D01*
X-28575Y384919D02*
X-28575Y382238D01*
D10*
X12700Y374650D02*
X19050Y368300D01*
X31750Y368300D01*
X38100Y374650D01*
X44450Y368300D01*
X57150Y368300D01*
X63500Y374650D01*
X69850Y368300D01*
X82550Y368300D01*
X88900Y374650D01*
X95250Y368300D01*
X107950Y368300D01*
X114300Y374650D01*
X120650Y368300D01*
X133350Y368300D01*
X139700Y374650D01*
X146050Y368300D01*
X158750Y368300D01*
X165100Y374650D01*
X12700Y374650D02*
X12700Y412750D01*
X19050Y419100D01*
X31750Y419100D01*
X38100Y412750D01*
X44450Y419100D01*
X57150Y419100D01*
X63500Y412750D01*
X69850Y419100D01*
X82550Y419100D01*
X88900Y412750D01*
X95250Y419100D01*
X107950Y419100D01*
X114300Y412750D01*
X120650Y419100D01*
X133350Y419100D01*
X139700Y412750D01*
X146050Y419100D01*
X158750Y419100D01*
X165100Y412750D01*
X171450Y419100D01*
X184150Y419100D01*
X190500Y412750D01*
X196850Y419100D01*
X209550Y419100D01*
X215900Y412750D01*
X222250Y419100D01*
X234950Y419100D01*
X241300Y412750D01*
X247650Y419100D01*
X260350Y419100D01*
X266700Y412750D01*
X273050Y419100D01*
X285750Y419100D01*
X292100Y412750D01*
X298450Y419100D01*
X311150Y419100D01*
X317500Y412750D01*
X323850Y419100D01*
X336550Y419100D01*
X342900Y412750D01*
X349250Y419100D01*
X361950Y419100D01*
X368300Y412750D01*
X374650Y419100D01*
X387350Y419100D01*
X393700Y412750D01*
X400050Y419100D01*
X412750Y419100D01*
X419100Y412750D01*
X425450Y419100D01*
X438150Y419100D01*
X444500Y412750D01*
X450850Y419100D01*
X463550Y419100D01*
X469900Y412750D01*
X476250Y419100D01*
X488950Y419100D01*
X495300Y412750D01*
X495300Y374650D02*
X488950Y368300D01*
X476250Y368300D01*
X469900Y374650D01*
X463550Y368300D01*
X450850Y368300D01*
X444500Y374650D01*
X438150Y368300D01*
X425450Y368300D01*
X419100Y374650D01*
X412750Y368300D01*
X400050Y368300D01*
X393700Y374650D01*
X387350Y368300D01*
X374650Y368300D01*
X368300Y374650D01*
X361950Y368300D01*
X349250Y368300D01*
X342900Y374650D01*
X336550Y368300D01*
X323850Y368300D01*
X317500Y374650D01*
X311150Y368300D01*
X298450Y368300D01*
X292100Y374650D01*
X285750Y368300D01*
X273050Y368300D01*
X266700Y374650D01*
X260350Y368300D01*
X247650Y368300D01*
X241300Y374650D01*
X234950Y368300D01*
X222250Y368300D01*
X215900Y374650D01*
X209550Y368300D01*
X196850Y368300D01*
X190500Y374650D01*
X184150Y368300D01*
X171450Y368300D01*
X165100Y374650D01*
X38100Y374650D02*
X38100Y412750D01*
X63500Y412750D02*
X63500Y374650D01*
X88900Y374650D02*
X88900Y412750D01*
X114300Y412750D02*
X114300Y374650D01*
X139700Y374650D02*
X139700Y412750D01*
X165100Y412750D02*
X165100Y374650D01*
X190500Y374650D02*
X190500Y412750D01*
X215900Y412750D02*
X215900Y374650D01*
X241300Y374650D02*
X241300Y412750D01*
X266700Y412750D02*
X266700Y374650D01*
X292100Y374650D02*
X292100Y412750D01*
X317500Y412750D02*
X317500Y374650D01*
X342900Y374650D02*
X342900Y412750D01*
X368300Y412750D02*
X368300Y374650D01*
X393700Y374650D02*
X393700Y412750D01*
X419100Y412750D02*
X419100Y374650D01*
X444500Y374650D02*
X444500Y412750D01*
X469900Y412750D02*
X469900Y374650D01*
X495300Y374650D02*
X495300Y412750D01*
X501650Y419100D01*
X514350Y419100D01*
X520700Y412750D01*
X520700Y374650D02*
X514350Y368300D01*
X501650Y368300D01*
X495300Y374650D01*
X520700Y374650D02*
X520700Y412750D01*
D11*
X17145Y428625D02*
X17145Y437515D01*
X17145Y428625D02*
X17143Y428525D01*
X17137Y428426D01*
X17127Y428326D01*
X17114Y428228D01*
X17096Y428129D01*
X17075Y428032D01*
X17050Y427936D01*
X17021Y427840D01*
X16988Y427746D01*
X16952Y427653D01*
X16912Y427562D01*
X16868Y427472D01*
X16821Y427384D01*
X16771Y427298D01*
X16717Y427214D01*
X16660Y427132D01*
X16600Y427053D01*
X16536Y426975D01*
X16470Y426901D01*
X16401Y426829D01*
X16329Y426760D01*
X16255Y426694D01*
X16177Y426630D01*
X16098Y426570D01*
X16016Y426513D01*
X15932Y426459D01*
X15846Y426409D01*
X15758Y426362D01*
X15668Y426318D01*
X15577Y426278D01*
X15484Y426242D01*
X15390Y426209D01*
X15294Y426180D01*
X15198Y426155D01*
X15101Y426134D01*
X15002Y426116D01*
X14904Y426103D01*
X14804Y426093D01*
X14705Y426087D01*
X14605Y426085D01*
X13335Y426085D01*
X23125Y426085D02*
X23125Y437515D01*
X26300Y437515D01*
X26411Y437513D01*
X26521Y437507D01*
X26632Y437498D01*
X26742Y437484D01*
X26851Y437467D01*
X26960Y437446D01*
X27068Y437421D01*
X27175Y437392D01*
X27281Y437360D01*
X27386Y437324D01*
X27489Y437284D01*
X27591Y437241D01*
X27692Y437194D01*
X27791Y437143D01*
X27888Y437090D01*
X27982Y437033D01*
X28075Y436972D01*
X28166Y436909D01*
X28255Y436842D01*
X28341Y436772D01*
X28424Y436699D01*
X28506Y436624D01*
X28584Y436546D01*
X28659Y436464D01*
X28732Y436381D01*
X28802Y436295D01*
X28869Y436206D01*
X28932Y436115D01*
X28993Y436022D01*
X29050Y435927D01*
X29103Y435831D01*
X29154Y435732D01*
X29201Y435631D01*
X29244Y435529D01*
X29284Y435426D01*
X29320Y435321D01*
X29352Y435215D01*
X29381Y435108D01*
X29406Y435000D01*
X29427Y434891D01*
X29444Y434782D01*
X29458Y434672D01*
X29467Y434561D01*
X29473Y434451D01*
X29475Y434340D01*
X29473Y434229D01*
X29467Y434119D01*
X29458Y434008D01*
X29444Y433898D01*
X29427Y433789D01*
X29406Y433680D01*
X29381Y433572D01*
X29352Y433465D01*
X29320Y433359D01*
X29284Y433254D01*
X29244Y433151D01*
X29201Y433049D01*
X29154Y432948D01*
X29103Y432849D01*
X29050Y432752D01*
X28993Y432658D01*
X28932Y432565D01*
X28869Y432474D01*
X28802Y432385D01*
X28732Y432299D01*
X28659Y432216D01*
X28584Y432134D01*
X28506Y432056D01*
X28424Y431981D01*
X28341Y431908D01*
X28255Y431838D01*
X28166Y431771D01*
X28075Y431708D01*
X27982Y431647D01*
X27887Y431590D01*
X27791Y431537D01*
X27692Y431486D01*
X27591Y431439D01*
X27489Y431396D01*
X27386Y431356D01*
X27281Y431320D01*
X27175Y431288D01*
X27068Y431259D01*
X26960Y431234D01*
X26851Y431213D01*
X26742Y431196D01*
X26632Y431182D01*
X26521Y431173D01*
X26411Y431167D01*
X26300Y431165D01*
X23125Y431165D01*
X33984Y434975D02*
X37159Y437515D01*
X37159Y426085D01*
X33984Y426085D02*
X40334Y426085D01*
X461300Y499400D02*
X517300Y499400D01*
X531300Y499400D01*
X531300Y569400D01*
X517300Y569400D01*
X461300Y569400D01*
X461300Y499400D01*
X517300Y499400D02*
X517300Y569400D01*
D12*
X457492Y530589D02*
X445808Y530589D01*
X445808Y533834D01*
X445810Y533947D01*
X445816Y534060D01*
X445826Y534173D01*
X445840Y534286D01*
X445857Y534398D01*
X445879Y534509D01*
X445904Y534619D01*
X445934Y534729D01*
X445967Y534837D01*
X446004Y534944D01*
X446044Y535050D01*
X446089Y535154D01*
X446137Y535257D01*
X446188Y535358D01*
X446243Y535457D01*
X446301Y535554D01*
X446363Y535649D01*
X446428Y535742D01*
X446496Y535832D01*
X446567Y535920D01*
X446642Y536006D01*
X446719Y536089D01*
X446799Y536169D01*
X446882Y536246D01*
X446968Y536321D01*
X447056Y536392D01*
X447146Y536460D01*
X447239Y536525D01*
X447334Y536587D01*
X447431Y536645D01*
X447530Y536700D01*
X447631Y536751D01*
X447734Y536799D01*
X447838Y536844D01*
X447944Y536884D01*
X448051Y536921D01*
X448159Y536954D01*
X448269Y536984D01*
X448379Y537009D01*
X448490Y537031D01*
X448602Y537048D01*
X448715Y537062D01*
X448828Y537072D01*
X448941Y537078D01*
X449054Y537080D01*
X449167Y537078D01*
X449280Y537072D01*
X449393Y537062D01*
X449506Y537048D01*
X449618Y537031D01*
X449729Y537009D01*
X449839Y536984D01*
X449949Y536954D01*
X450057Y536921D01*
X450164Y536884D01*
X450270Y536844D01*
X450374Y536799D01*
X450477Y536751D01*
X450578Y536700D01*
X450677Y536645D01*
X450774Y536587D01*
X450869Y536525D01*
X450962Y536460D01*
X451052Y536392D01*
X451140Y536321D01*
X451226Y536246D01*
X451309Y536169D01*
X451389Y536089D01*
X451466Y536006D01*
X451541Y535920D01*
X451612Y535832D01*
X451680Y535742D01*
X451745Y535649D01*
X451807Y535554D01*
X451865Y535457D01*
X451920Y535358D01*
X451971Y535257D01*
X452019Y535154D01*
X452064Y535050D01*
X452104Y534944D01*
X452141Y534837D01*
X452174Y534729D01*
X452204Y534619D01*
X452229Y534509D01*
X452251Y534398D01*
X452268Y534286D01*
X452282Y534173D01*
X452292Y534060D01*
X452298Y533947D01*
X452300Y533834D01*
X452299Y533834D02*
X452299Y530589D01*
X445808Y541045D02*
X457492Y543641D01*
X449703Y546238D01*
X457492Y548834D01*
X445808Y551431D01*
X445808Y556401D02*
X457492Y556401D01*
X445808Y556401D02*
X445808Y559646D01*
X445810Y559759D01*
X445816Y559872D01*
X445826Y559985D01*
X445840Y560098D01*
X445857Y560210D01*
X445879Y560321D01*
X445904Y560431D01*
X445934Y560541D01*
X445967Y560649D01*
X446004Y560756D01*
X446044Y560862D01*
X446089Y560966D01*
X446137Y561069D01*
X446188Y561170D01*
X446243Y561269D01*
X446301Y561366D01*
X446363Y561461D01*
X446428Y561554D01*
X446496Y561644D01*
X446567Y561732D01*
X446642Y561818D01*
X446719Y561901D01*
X446799Y561981D01*
X446882Y562058D01*
X446968Y562133D01*
X447056Y562204D01*
X447146Y562272D01*
X447239Y562337D01*
X447334Y562399D01*
X447431Y562457D01*
X447530Y562512D01*
X447631Y562563D01*
X447734Y562611D01*
X447838Y562656D01*
X447944Y562696D01*
X448051Y562733D01*
X448159Y562766D01*
X448269Y562796D01*
X448379Y562821D01*
X448490Y562843D01*
X448602Y562860D01*
X448715Y562874D01*
X448828Y562884D01*
X448941Y562890D01*
X449054Y562892D01*
X449167Y562890D01*
X449280Y562884D01*
X449393Y562874D01*
X449506Y562860D01*
X449618Y562843D01*
X449729Y562821D01*
X449839Y562796D01*
X449949Y562766D01*
X450057Y562733D01*
X450164Y562696D01*
X450270Y562656D01*
X450374Y562611D01*
X450477Y562563D01*
X450578Y562512D01*
X450677Y562457D01*
X450774Y562399D01*
X450869Y562337D01*
X450962Y562272D01*
X451052Y562204D01*
X451140Y562133D01*
X451226Y562058D01*
X451309Y561981D01*
X451389Y561901D01*
X451466Y561818D01*
X451541Y561732D01*
X451612Y561644D01*
X451680Y561554D01*
X451745Y561461D01*
X451807Y561366D01*
X451865Y561269D01*
X451920Y561170D01*
X451971Y561069D01*
X452019Y560966D01*
X452064Y560862D01*
X452104Y560756D01*
X452141Y560649D01*
X452174Y560541D01*
X452204Y560431D01*
X452229Y560321D01*
X452251Y560210D01*
X452268Y560098D01*
X452282Y559985D01*
X452292Y559872D01*
X452298Y559759D01*
X452300Y559646D01*
X452299Y559646D02*
X452299Y556401D01*
X452299Y560296D02*
X457492Y562892D01*
D11*
X461300Y220000D02*
X517300Y220000D01*
X531300Y220000D01*
X531300Y290000D01*
X517300Y290000D01*
X461300Y290000D01*
X461300Y220000D01*
X517300Y220000D02*
X517300Y290000D01*
D12*
X454896Y217886D02*
X454995Y217884D01*
X455095Y217878D01*
X455194Y217869D01*
X455292Y217856D01*
X455390Y217839D01*
X455488Y217818D01*
X455584Y217793D01*
X455679Y217765D01*
X455773Y217733D01*
X455866Y217698D01*
X455958Y217659D01*
X456048Y217616D01*
X456136Y217571D01*
X456223Y217521D01*
X456307Y217469D01*
X456390Y217413D01*
X456470Y217355D01*
X456548Y217293D01*
X456623Y217228D01*
X456696Y217160D01*
X456766Y217090D01*
X456834Y217017D01*
X456899Y216942D01*
X456961Y216864D01*
X457019Y216784D01*
X457075Y216701D01*
X457127Y216617D01*
X457177Y216530D01*
X457222Y216442D01*
X457265Y216352D01*
X457304Y216260D01*
X457339Y216167D01*
X457371Y216073D01*
X457399Y215978D01*
X457424Y215882D01*
X457445Y215784D01*
X457462Y215686D01*
X457475Y215588D01*
X457484Y215489D01*
X457490Y215389D01*
X457492Y215290D01*
X457490Y215146D01*
X457484Y215001D01*
X457475Y214857D01*
X457462Y214714D01*
X457445Y214570D01*
X457424Y214427D01*
X457399Y214285D01*
X457371Y214144D01*
X457339Y214003D01*
X457303Y213863D01*
X457264Y213724D01*
X457221Y213586D01*
X457174Y213450D01*
X457124Y213314D01*
X457070Y213180D01*
X457013Y213048D01*
X456952Y212917D01*
X456888Y212788D01*
X456820Y212660D01*
X456750Y212534D01*
X456675Y212410D01*
X456598Y212289D01*
X456517Y212169D01*
X456434Y212051D01*
X456347Y211936D01*
X456257Y211823D01*
X456164Y211712D01*
X456069Y211604D01*
X455970Y211498D01*
X455869Y211395D01*
X448404Y211720D02*
X448305Y211722D01*
X448205Y211728D01*
X448106Y211737D01*
X448008Y211750D01*
X447910Y211767D01*
X447812Y211788D01*
X447716Y211813D01*
X447621Y211841D01*
X447527Y211873D01*
X447434Y211908D01*
X447342Y211947D01*
X447252Y211990D01*
X447164Y212035D01*
X447077Y212085D01*
X446993Y212137D01*
X446910Y212193D01*
X446830Y212251D01*
X446752Y212313D01*
X446677Y212378D01*
X446604Y212446D01*
X446534Y212516D01*
X446466Y212589D01*
X446401Y212664D01*
X446339Y212742D01*
X446281Y212822D01*
X446225Y212905D01*
X446173Y212989D01*
X446123Y213076D01*
X446078Y213164D01*
X446035Y213254D01*
X445996Y213346D01*
X445961Y213439D01*
X445929Y213533D01*
X445901Y213628D01*
X445876Y213724D01*
X445855Y213822D01*
X445838Y213920D01*
X445825Y214018D01*
X445816Y214117D01*
X445810Y214217D01*
X445808Y214316D01*
X445810Y214452D01*
X445816Y214588D01*
X445825Y214724D01*
X445838Y214860D01*
X445856Y214995D01*
X445876Y215129D01*
X445901Y215263D01*
X445929Y215397D01*
X445962Y215529D01*
X445997Y215660D01*
X446037Y215791D01*
X446080Y215920D01*
X446126Y216048D01*
X446177Y216174D01*
X446230Y216300D01*
X446288Y216423D01*
X446348Y216545D01*
X446412Y216665D01*
X446480Y216784D01*
X446550Y216900D01*
X446624Y217014D01*
X446701Y217127D01*
X446782Y217237D01*
X450676Y213018D02*
X450623Y212932D01*
X450566Y212848D01*
X450507Y212766D01*
X450444Y212686D01*
X450378Y212609D01*
X450310Y212534D01*
X450238Y212462D01*
X450164Y212393D01*
X450087Y212327D01*
X450008Y212264D01*
X449926Y212204D01*
X449842Y212147D01*
X449756Y212093D01*
X449668Y212043D01*
X449578Y211996D01*
X449487Y211952D01*
X449393Y211913D01*
X449299Y211876D01*
X449203Y211844D01*
X449105Y211815D01*
X449007Y211790D01*
X448908Y211769D01*
X448808Y211751D01*
X448708Y211738D01*
X448607Y211728D01*
X448505Y211722D01*
X448404Y211720D01*
X452624Y216588D02*
X452677Y216674D01*
X452734Y216758D01*
X452793Y216840D01*
X452856Y216920D01*
X452922Y216997D01*
X452990Y217072D01*
X453062Y217144D01*
X453136Y217213D01*
X453213Y217279D01*
X453292Y217342D01*
X453374Y217402D01*
X453458Y217459D01*
X453544Y217513D01*
X453632Y217563D01*
X453722Y217610D01*
X453813Y217654D01*
X453907Y217693D01*
X454001Y217730D01*
X454097Y217762D01*
X454195Y217791D01*
X454293Y217816D01*
X454392Y217837D01*
X454492Y217855D01*
X454592Y217868D01*
X454693Y217878D01*
X454795Y217884D01*
X454896Y217886D01*
X452624Y216588D02*
X450676Y213018D01*
X445808Y222995D02*
X457492Y222995D01*
X445808Y222995D02*
X445808Y226240D01*
X445810Y226353D01*
X445816Y226466D01*
X445826Y226579D01*
X445840Y226692D01*
X445857Y226804D01*
X445879Y226915D01*
X445904Y227025D01*
X445934Y227135D01*
X445967Y227243D01*
X446004Y227350D01*
X446044Y227456D01*
X446089Y227560D01*
X446137Y227663D01*
X446188Y227764D01*
X446243Y227863D01*
X446301Y227960D01*
X446363Y228055D01*
X446428Y228148D01*
X446496Y228238D01*
X446567Y228326D01*
X446642Y228412D01*
X446719Y228495D01*
X446799Y228575D01*
X446882Y228652D01*
X446968Y228727D01*
X447056Y228798D01*
X447146Y228866D01*
X447239Y228931D01*
X447334Y228993D01*
X447431Y229051D01*
X447530Y229106D01*
X447631Y229157D01*
X447734Y229205D01*
X447838Y229250D01*
X447944Y229290D01*
X448051Y229327D01*
X448159Y229360D01*
X448269Y229390D01*
X448379Y229415D01*
X448490Y229437D01*
X448602Y229454D01*
X448715Y229468D01*
X448828Y229478D01*
X448941Y229484D01*
X449054Y229486D01*
X449167Y229484D01*
X449280Y229478D01*
X449393Y229468D01*
X449506Y229454D01*
X449618Y229437D01*
X449729Y229415D01*
X449839Y229390D01*
X449949Y229360D01*
X450057Y229327D01*
X450164Y229290D01*
X450270Y229250D01*
X450374Y229205D01*
X450477Y229157D01*
X450578Y229106D01*
X450677Y229051D01*
X450774Y228993D01*
X450869Y228931D01*
X450962Y228866D01*
X451052Y228798D01*
X451140Y228727D01*
X451226Y228652D01*
X451309Y228575D01*
X451389Y228495D01*
X451466Y228412D01*
X451541Y228326D01*
X451612Y228238D01*
X451680Y228148D01*
X451745Y228055D01*
X451807Y227960D01*
X451865Y227863D01*
X451920Y227764D01*
X451971Y227663D01*
X452019Y227560D01*
X452064Y227456D01*
X452104Y227350D01*
X452141Y227243D01*
X452174Y227135D01*
X452204Y227025D01*
X452229Y226915D01*
X452251Y226804D01*
X452268Y226692D01*
X452282Y226579D01*
X452292Y226466D01*
X452298Y226353D01*
X452300Y226240D01*
X452299Y226240D02*
X452299Y222995D01*
X457492Y234278D02*
X457492Y239471D01*
X457492Y234278D02*
X445808Y234278D01*
X445808Y239471D01*
X451001Y238173D02*
X451001Y234278D01*
X457492Y243131D02*
X445808Y247026D01*
X457492Y250921D01*
X454571Y249947D02*
X454571Y244105D01*
X457492Y255761D02*
X445808Y255761D01*
X445808Y262252D02*
X452948Y255761D01*
X450352Y258357D02*
X457492Y262252D01*
X457492Y267044D02*
X457492Y272237D01*
X457492Y267044D02*
X445808Y267044D01*
X445808Y272237D01*
X451001Y270939D02*
X451001Y267044D01*
X445808Y277001D02*
X457492Y277001D01*
X445808Y277001D02*
X445808Y280246D01*
X445810Y280359D01*
X445816Y280472D01*
X445826Y280585D01*
X445840Y280698D01*
X445857Y280810D01*
X445879Y280921D01*
X445904Y281031D01*
X445934Y281141D01*
X445967Y281249D01*
X446004Y281356D01*
X446044Y281462D01*
X446089Y281566D01*
X446137Y281669D01*
X446188Y281770D01*
X446243Y281869D01*
X446301Y281966D01*
X446363Y282061D01*
X446428Y282154D01*
X446496Y282244D01*
X446567Y282332D01*
X446642Y282418D01*
X446719Y282501D01*
X446799Y282581D01*
X446882Y282658D01*
X446968Y282733D01*
X447056Y282804D01*
X447146Y282872D01*
X447239Y282937D01*
X447334Y282999D01*
X447431Y283057D01*
X447530Y283112D01*
X447631Y283163D01*
X447734Y283211D01*
X447838Y283256D01*
X447944Y283296D01*
X448051Y283333D01*
X448159Y283366D01*
X448269Y283396D01*
X448379Y283421D01*
X448490Y283443D01*
X448602Y283460D01*
X448715Y283474D01*
X448828Y283484D01*
X448941Y283490D01*
X449054Y283492D01*
X449167Y283490D01*
X449280Y283484D01*
X449393Y283474D01*
X449506Y283460D01*
X449618Y283443D01*
X449729Y283421D01*
X449839Y283396D01*
X449949Y283366D01*
X450057Y283333D01*
X450164Y283296D01*
X450270Y283256D01*
X450374Y283211D01*
X450477Y283163D01*
X450578Y283112D01*
X450677Y283057D01*
X450774Y282999D01*
X450869Y282937D01*
X450962Y282872D01*
X451052Y282804D01*
X451140Y282733D01*
X451226Y282658D01*
X451309Y282581D01*
X451389Y282501D01*
X451466Y282418D01*
X451541Y282332D01*
X451612Y282244D01*
X451680Y282154D01*
X451745Y282061D01*
X451807Y281966D01*
X451865Y281869D01*
X451920Y281770D01*
X451971Y281669D01*
X452019Y281566D01*
X452064Y281462D01*
X452104Y281356D01*
X452141Y281249D01*
X452174Y281141D01*
X452204Y281031D01*
X452229Y280921D01*
X452251Y280810D01*
X452268Y280698D01*
X452282Y280585D01*
X452292Y280472D01*
X452298Y280359D01*
X452300Y280246D01*
X452299Y280246D02*
X452299Y277001D01*
X452299Y280896D02*
X457492Y283492D01*
M02*
