G04 EAGLE Gerber RS-274X export*
G75*
%MOMM*%
%FSLAX34Y34*%
%LPD*%
%INBottom Copper*%
%IPPOS*%
%AMOC8*
5,1,8,0,0,1.08239X$1,22.5*%
G01*
%ADD10C,1.879600*%
%ADD11P,1.649562X8X22.500000*%
%ADD12C,2.184400*%
%ADD13C,0.304800*%
%ADD14C,0.756400*%


D10*
X330200Y622300D03*
X304800Y622300D03*
X279400Y622300D03*
X254000Y622300D03*
X228600Y622300D03*
X203200Y622300D03*
X152400Y622300D03*
X127000Y622300D03*
X101600Y622300D03*
X76200Y622300D03*
X50800Y622300D03*
X25400Y622300D03*
X25400Y139700D03*
X50800Y139700D03*
X76200Y139700D03*
X101600Y139700D03*
X127000Y139700D03*
X152400Y139700D03*
X177800Y139700D03*
X203200Y139700D03*
X241300Y139700D03*
X266700Y139700D03*
X292100Y139700D03*
X317500Y139700D03*
X342900Y139700D03*
X368300Y139700D03*
X393700Y139700D03*
X419100Y139700D03*
X444500Y139700D03*
X469900Y139700D03*
X355600Y622300D03*
X381000Y622300D03*
D11*
X25400Y381000D03*
X25400Y406400D03*
X50800Y381000D03*
X50800Y406400D03*
X76200Y381000D03*
X76200Y406400D03*
X101600Y381000D03*
X101600Y406400D03*
X127000Y381000D03*
X127000Y406400D03*
X152400Y381000D03*
X152400Y406400D03*
X177800Y381000D03*
X177800Y406400D03*
X203200Y381000D03*
X203200Y406400D03*
X228600Y381000D03*
X228600Y406400D03*
X254000Y381000D03*
X254000Y406400D03*
X279400Y381000D03*
X279400Y406400D03*
X304800Y381000D03*
X304800Y406400D03*
X330200Y381000D03*
X330200Y406400D03*
X355600Y381000D03*
X355600Y406400D03*
X381000Y381000D03*
X381000Y406400D03*
X406400Y381000D03*
X406400Y406400D03*
X431800Y381000D03*
X431800Y406400D03*
X457200Y381000D03*
X457200Y406400D03*
X482600Y381000D03*
X482600Y406400D03*
X508000Y381000D03*
X508000Y406400D03*
D12*
X495300Y551400D03*
X495300Y516400D03*
X495300Y272000D03*
X495300Y237000D03*
D13*
X27432Y265176D02*
X27432Y379476D01*
X27432Y265176D02*
X150876Y141732D01*
X27432Y379476D02*
X25400Y381000D01*
X150876Y141732D02*
X152400Y139700D01*
X52578Y265176D02*
X52578Y379476D01*
X52578Y265176D02*
X176022Y141732D01*
X52578Y379476D02*
X50800Y381000D01*
X176022Y141732D02*
X177800Y139700D01*
X61722Y404622D02*
X52578Y404622D01*
X61722Y404622D02*
X73152Y393192D01*
X486918Y393192D01*
X493776Y386334D01*
X493776Y317754D01*
X317754Y141732D01*
X52578Y404622D02*
X50800Y406400D01*
X317754Y141732D02*
X317500Y139700D01*
X274320Y157734D02*
X246888Y157734D01*
X274320Y157734D02*
X290322Y141732D01*
X292100Y139700D01*
D14*
X246888Y157734D03*
D13*
X470916Y379476D02*
X482346Y379476D01*
X470916Y379476D02*
X256032Y164592D01*
X226314Y164592D01*
X203454Y141732D01*
X482346Y379476D02*
X482600Y381000D01*
X203454Y141732D02*
X203200Y139700D01*
X457200Y406400D02*
X457200Y514350D01*
X493776Y550926D01*
X495300Y551400D01*
M02*
