M48
;GenerationSoftware,Autodesk,EAGLE,9.6.2*%
;CreationDate,2020-07-14T01:21:53Z*%
FMAT,2
ICI,OFF
METRIC,TZ,000.000
T3C0.350
T2C1.000
T1C1.016
%
G90
M71
T1
X10160Y62230
X33020Y62230
X30480Y62230
X27940Y62230
X25400Y62230
X22860Y62230
X20320Y62230
X15240Y62230
X12700Y62230
X15240Y13970
X7620Y62230
X5080Y62230
X2540Y62230
X2540Y13970
X5080Y13970
X7620Y13970
X10160Y13970
X12700Y13970
X50800Y40640
X17780Y13970
X20320Y13970
X24130Y13970
X26670Y13970
X29210Y13970
X31750Y13970
X34290Y13970
X36830Y13970
X39370Y13970
X41910Y13970
X44450Y13970
X46990Y13970
X35560Y62230
X38100Y62230
X2540Y38100
X2540Y40640
X5080Y38100
X5080Y40640
X7620Y38100
X7620Y40640
X10160Y38100
X10160Y40640
X12700Y38100
X12700Y40640
X15240Y38100
X15240Y40640
X17780Y38100
X17780Y40640
X20320Y38100
X20320Y40640
X22860Y38100
X22860Y40640
X25400Y38100
X25400Y40640
X27940Y38100
X27940Y40640
X30480Y38100
X30480Y40640
X33020Y38100
X33020Y40640
X35560Y38100
X35560Y40640
X38100Y38100
X38100Y40640
X40640Y38100
X40640Y40640
X43180Y38100
X43180Y40640
X45720Y38100
X45720Y40640
X48260Y38100
X48260Y40640
X50800Y38100
T2
X49530Y55140
X49530Y51640
X49530Y27200
X49530Y23700
T3
X24689Y15773
M30
